G04 EAGLE Gerber RS-274X export*
G75*
%MOMM*%
%FSLAX34Y34*%
%LPD*%
%INBottom Copper*%
%IPPOS*%
%AMOC8*
5,1,8,0,0,1.08239X$1,22.5*%
G01*
%ADD10C,1.879600*%
%ADD11P,2.597736X8X112.500000*%
%ADD12C,1.508000*%
%ADD13C,0.508000*%
%ADD14C,0.406400*%
%ADD15C,1.308000*%
%ADD16C,0.304800*%


D10*
X254000Y32801D02*
X254000Y42199D01*
X279400Y42199D02*
X279400Y32801D01*
X304800Y32801D02*
X304800Y42199D01*
X330200Y42199D02*
X330200Y32801D01*
X355600Y32801D02*
X355600Y42199D01*
X381000Y42199D02*
X381000Y32801D01*
X406400Y32801D02*
X406400Y42199D01*
X431800Y42199D02*
X431800Y32801D01*
D11*
X585470Y146050D03*
D12*
X342900Y546100D03*
X355600Y146050D03*
D13*
X196850Y304800D01*
X196850Y461010D01*
X281940Y546100D01*
X342900Y546100D01*
D14*
X443830Y49530D02*
X431800Y37500D01*
X443830Y49530D02*
X532130Y49530D01*
X585470Y102870D01*
X585470Y146050D01*
D15*
X295910Y604520D03*
D16*
X295910Y646430D01*
X245110Y697230D01*
X180340Y697230D01*
X115570Y632460D01*
X176530Y29210D02*
X209550Y29210D01*
X229870Y49530D01*
X229870Y74930D02*
X215900Y88900D01*
D15*
X215900Y88900D03*
D16*
X115570Y90170D02*
X115570Y632460D01*
X115570Y90170D02*
X176530Y29210D01*
X229870Y49530D02*
X229870Y74930D01*
D15*
X284480Y614680D03*
D16*
X284480Y633730D01*
X233680Y684530D01*
X196850Y684530D01*
X135890Y623570D01*
X135890Y124460D02*
X196850Y63500D01*
D12*
X196850Y63500D03*
D16*
X135890Y124460D02*
X135890Y623570D01*
D12*
X304800Y227330D03*
D13*
X289664Y97790D02*
X254000Y62126D01*
X254000Y37500D01*
X289664Y97790D02*
X355600Y97790D01*
X378460Y116840D02*
X378460Y177800D01*
X378460Y181610D01*
X332740Y227330D01*
X304800Y227330D01*
D12*
X520700Y203200D03*
D13*
X403860Y203200D02*
X378460Y177800D01*
X403860Y203200D02*
X520700Y203200D01*
D12*
X369570Y107950D03*
D13*
X365760Y107950D02*
X355600Y97790D01*
X365760Y107950D02*
X369570Y107950D01*
X378460Y116840D01*
D12*
X467360Y179070D03*
D13*
X406400Y96520D02*
X406400Y37500D01*
X467360Y157480D02*
X467360Y179070D01*
X467360Y157480D02*
X406400Y96520D01*
D12*
X234950Y407670D03*
X387350Y415290D03*
X551180Y147320D03*
X533400Y382270D03*
D13*
X551180Y364490D02*
X551180Y147320D01*
X551180Y364490D02*
X533400Y382270D01*
X420370Y382270D01*
X387350Y415290D01*
X260350Y382270D02*
X234950Y407670D01*
X260350Y382270D02*
X420370Y382270D01*
D12*
X425450Y629920D03*
X452120Y515620D03*
D16*
X452120Y603250D01*
X425450Y629920D01*
D15*
X223520Y224790D03*
D16*
X181610Y266700D01*
X181610Y599440D02*
X223520Y641350D01*
D15*
X223520Y641350D03*
D16*
X181610Y599440D02*
X181610Y266700D01*
D15*
X260350Y214630D03*
D16*
X254000Y208280D01*
X177800Y208280D01*
X149860Y236220D01*
X149860Y608330D01*
X210820Y669290D01*
X228600Y669290D01*
X261620Y636270D01*
X261620Y633730D01*
D15*
X261620Y633730D03*
M02*
