G04 EAGLE Gerber RS-274X export*
G75*
%MOMM*%
%FSLAX34Y34*%
%LPD*%
%IN*%
%IPPOS*%
%AMOC8*
5,1,8,0,0,1.08239X$1,22.5*%
G01*
%ADD10C,0.254000*%


D10*
X0Y0D02*
X685600Y0D01*
X685600Y796800D01*
X0Y796800D01*
X0Y0D01*
X53100Y761464D02*
X53024Y760396D01*
X52871Y759335D01*
X52643Y758288D01*
X52341Y757260D01*
X51967Y756256D01*
X51522Y755281D01*
X51008Y754341D01*
X50429Y753440D01*
X49787Y752582D01*
X49085Y751772D01*
X48328Y751015D01*
X47518Y750313D01*
X46660Y749671D01*
X45759Y749092D01*
X44819Y748578D01*
X43844Y748133D01*
X42840Y747759D01*
X41812Y747457D01*
X40765Y747229D01*
X39704Y747076D01*
X38636Y747000D01*
X37564Y747000D01*
X36496Y747076D01*
X35435Y747229D01*
X34388Y747457D01*
X33360Y747759D01*
X32356Y748133D01*
X31381Y748578D01*
X30441Y749092D01*
X29540Y749671D01*
X28682Y750313D01*
X27872Y751015D01*
X27115Y751772D01*
X26413Y752582D01*
X25771Y753440D01*
X25192Y754341D01*
X24678Y755281D01*
X24233Y756256D01*
X23859Y757260D01*
X23557Y758288D01*
X23329Y759335D01*
X23176Y760396D01*
X23100Y761464D01*
X23100Y762536D01*
X23176Y763604D01*
X23329Y764665D01*
X23557Y765712D01*
X23859Y766740D01*
X24233Y767744D01*
X24678Y768719D01*
X25192Y769659D01*
X25771Y770560D01*
X26413Y771418D01*
X27115Y772228D01*
X27872Y772985D01*
X28682Y773687D01*
X29540Y774329D01*
X30441Y774908D01*
X31381Y775422D01*
X32356Y775867D01*
X33360Y776241D01*
X34388Y776543D01*
X35435Y776771D01*
X36496Y776924D01*
X37564Y777000D01*
X38636Y777000D01*
X39704Y776924D01*
X40765Y776771D01*
X41812Y776543D01*
X42840Y776241D01*
X43844Y775867D01*
X44819Y775422D01*
X45759Y774908D01*
X46660Y774329D01*
X47518Y773687D01*
X48328Y772985D01*
X49085Y772228D01*
X49787Y771418D01*
X50429Y770560D01*
X51008Y769659D01*
X51522Y768719D01*
X51967Y767744D01*
X52341Y766740D01*
X52643Y765712D01*
X52871Y764665D01*
X53024Y763604D01*
X53100Y762536D01*
X53100Y761464D01*
X662700Y761464D02*
X662624Y760396D01*
X662471Y759335D01*
X662243Y758288D01*
X661941Y757260D01*
X661567Y756256D01*
X661122Y755281D01*
X660608Y754341D01*
X660029Y753440D01*
X659387Y752582D01*
X658685Y751772D01*
X657928Y751015D01*
X657118Y750313D01*
X656260Y749671D01*
X655359Y749092D01*
X654419Y748578D01*
X653444Y748133D01*
X652440Y747759D01*
X651412Y747457D01*
X650365Y747229D01*
X649304Y747076D01*
X648236Y747000D01*
X647164Y747000D01*
X646096Y747076D01*
X645035Y747229D01*
X643988Y747457D01*
X642960Y747759D01*
X641956Y748133D01*
X640981Y748578D01*
X640041Y749092D01*
X639140Y749671D01*
X638282Y750313D01*
X637472Y751015D01*
X636715Y751772D01*
X636013Y752582D01*
X635371Y753440D01*
X634792Y754341D01*
X634278Y755281D01*
X633833Y756256D01*
X633459Y757260D01*
X633157Y758288D01*
X632929Y759335D01*
X632776Y760396D01*
X632700Y761464D01*
X632700Y762536D01*
X632776Y763604D01*
X632929Y764665D01*
X633157Y765712D01*
X633459Y766740D01*
X633833Y767744D01*
X634278Y768719D01*
X634792Y769659D01*
X635371Y770560D01*
X636013Y771418D01*
X636715Y772228D01*
X637472Y772985D01*
X638282Y773687D01*
X639140Y774329D01*
X640041Y774908D01*
X640981Y775422D01*
X641956Y775867D01*
X642960Y776241D01*
X643988Y776543D01*
X645035Y776771D01*
X646096Y776924D01*
X647164Y777000D01*
X648236Y777000D01*
X649304Y776924D01*
X650365Y776771D01*
X651412Y776543D01*
X652440Y776241D01*
X653444Y775867D01*
X654419Y775422D01*
X655359Y774908D01*
X656260Y774329D01*
X657118Y773687D01*
X657928Y772985D01*
X658685Y772228D01*
X659387Y771418D01*
X660029Y770560D01*
X660608Y769659D01*
X661122Y768719D01*
X661567Y767744D01*
X661941Y766740D01*
X662243Y765712D01*
X662471Y764665D01*
X662624Y763604D01*
X662700Y762536D01*
X662700Y761464D01*
X497500Y22705D02*
X497423Y22120D01*
X497270Y21550D01*
X497045Y21005D01*
X496750Y20495D01*
X496391Y20027D01*
X495973Y19609D01*
X495505Y19250D01*
X494995Y18955D01*
X494450Y18730D01*
X493880Y18577D01*
X493295Y18500D01*
X492705Y18500D01*
X492120Y18577D01*
X491550Y18730D01*
X491005Y18955D01*
X490495Y19250D01*
X490027Y19609D01*
X489609Y20027D01*
X489250Y20495D01*
X488955Y21005D01*
X488730Y21550D01*
X488577Y22120D01*
X488500Y22705D01*
X488500Y23295D01*
X488577Y23880D01*
X488730Y24450D01*
X488955Y24995D01*
X489250Y25505D01*
X489609Y25973D01*
X490027Y26391D01*
X490495Y26750D01*
X491005Y27045D01*
X491550Y27270D01*
X492120Y27423D01*
X492705Y27500D01*
X493295Y27500D01*
X493880Y27423D01*
X494450Y27270D01*
X494995Y27045D01*
X495505Y26750D01*
X495973Y26391D01*
X496391Y25973D01*
X496750Y25505D01*
X497045Y24995D01*
X497270Y24450D01*
X497423Y23880D01*
X497500Y23295D01*
X497500Y22705D01*
X527500Y22705D02*
X527423Y22120D01*
X527270Y21550D01*
X527045Y21005D01*
X526750Y20495D01*
X526391Y20027D01*
X525973Y19609D01*
X525505Y19250D01*
X524995Y18955D01*
X524450Y18730D01*
X523880Y18577D01*
X523295Y18500D01*
X522705Y18500D01*
X522120Y18577D01*
X521550Y18730D01*
X521005Y18955D01*
X520495Y19250D01*
X520027Y19609D01*
X519609Y20027D01*
X519250Y20495D01*
X518955Y21005D01*
X518730Y21550D01*
X518577Y22120D01*
X518500Y22705D01*
X518500Y23295D01*
X518577Y23880D01*
X518730Y24450D01*
X518955Y24995D01*
X519250Y25505D01*
X519609Y25973D01*
X520027Y26391D01*
X520495Y26750D01*
X521005Y27045D01*
X521550Y27270D01*
X522120Y27423D01*
X522705Y27500D01*
X523295Y27500D01*
X523880Y27423D01*
X524450Y27270D01*
X524995Y27045D01*
X525505Y26750D01*
X525973Y26391D01*
X526391Y25973D01*
X526750Y25505D01*
X527045Y24995D01*
X527270Y24450D01*
X527423Y23880D01*
X527500Y23295D01*
X527500Y22705D01*
M02*
