G04 EAGLE Gerber RS-274X export*
G75*
%MOMM*%
%FSLAX34Y34*%
%LPD*%
%INSoldermask Top*%
%IPPOS*%
%AMOC8*
5,1,8,0,0,1.08239X$1,22.5*%
G01*
%ADD10C,3.101600*%
%ADD11C,0.238272*%
%ADD12C,0.171600*%
%ADD13C,0.154350*%
%ADD14C,0.416206*%
%ADD15C,0.148716*%
%ADD16C,1.981200*%
%ADD17C,0.181500*%
%ADD18C,0.177100*%
%ADD19C,0.990000*%
%ADD20C,0.184800*%
%ADD21C,0.153669*%
%ADD22C,0.216288*%
%ADD23P,2.707707X8X112.500000*%
%ADD24C,1.609600*%
%ADD25C,1.409600*%


D10*
X38100Y762000D03*
X647700Y762000D03*
D11*
X283513Y140277D02*
X283513Y128643D01*
X283513Y140277D02*
X298147Y140277D01*
X298147Y128643D01*
X283513Y128643D01*
X283513Y130907D02*
X298147Y130907D01*
X298147Y133171D02*
X283513Y133171D01*
X283513Y135435D02*
X298147Y135435D01*
X298147Y137699D02*
X283513Y137699D01*
X283513Y139963D02*
X298147Y139963D01*
X283513Y120277D02*
X283513Y108643D01*
X283513Y120277D02*
X298147Y120277D01*
X298147Y108643D01*
X283513Y108643D01*
X283513Y110907D02*
X298147Y110907D01*
X298147Y113171D02*
X283513Y113171D01*
X283513Y115435D02*
X298147Y115435D01*
X298147Y117699D02*
X283513Y117699D01*
X283513Y119963D02*
X298147Y119963D01*
X391463Y281043D02*
X391463Y292677D01*
X406097Y292677D01*
X406097Y281043D01*
X391463Y281043D01*
X391463Y283307D02*
X406097Y283307D01*
X406097Y285571D02*
X391463Y285571D01*
X391463Y287835D02*
X406097Y287835D01*
X406097Y290099D02*
X391463Y290099D01*
X391463Y292363D02*
X406097Y292363D01*
X391463Y272677D02*
X391463Y261043D01*
X391463Y272677D02*
X406097Y272677D01*
X406097Y261043D01*
X391463Y261043D01*
X391463Y263307D02*
X406097Y263307D01*
X406097Y265571D02*
X391463Y265571D01*
X391463Y267835D02*
X406097Y267835D01*
X406097Y270099D02*
X391463Y270099D01*
X391463Y272363D02*
X406097Y272363D01*
X367997Y368993D02*
X367997Y380627D01*
X367997Y368993D02*
X353363Y368993D01*
X353363Y380627D01*
X367997Y380627D01*
X367997Y371257D02*
X353363Y371257D01*
X353363Y373521D02*
X367997Y373521D01*
X367997Y375785D02*
X353363Y375785D01*
X353363Y378049D02*
X367997Y378049D01*
X367997Y380313D02*
X353363Y380313D01*
X367997Y388993D02*
X367997Y400627D01*
X367997Y388993D02*
X353363Y388993D01*
X353363Y400627D01*
X367997Y400627D01*
X367997Y391257D02*
X353363Y391257D01*
X353363Y393521D02*
X367997Y393521D01*
X367997Y395785D02*
X353363Y395785D01*
X353363Y398049D02*
X367997Y398049D01*
X367997Y400313D02*
X353363Y400313D01*
X388317Y482023D02*
X388317Y493657D01*
X388317Y482023D02*
X373683Y482023D01*
X373683Y493657D01*
X388317Y493657D01*
X388317Y484287D02*
X373683Y484287D01*
X373683Y486551D02*
X388317Y486551D01*
X388317Y488815D02*
X373683Y488815D01*
X373683Y491079D02*
X388317Y491079D01*
X388317Y493343D02*
X373683Y493343D01*
X388317Y502023D02*
X388317Y513657D01*
X388317Y502023D02*
X373683Y502023D01*
X373683Y513657D01*
X388317Y513657D01*
X388317Y504287D02*
X373683Y504287D01*
X373683Y506551D02*
X388317Y506551D01*
X388317Y508815D02*
X373683Y508815D01*
X373683Y511079D02*
X388317Y511079D01*
X388317Y513343D02*
X373683Y513343D01*
X238387Y364793D02*
X226753Y364793D01*
X226753Y379427D01*
X238387Y379427D01*
X238387Y364793D01*
X238387Y367057D02*
X226753Y367057D01*
X226753Y369321D02*
X238387Y369321D01*
X238387Y371585D02*
X226753Y371585D01*
X226753Y373849D02*
X238387Y373849D01*
X238387Y376113D02*
X226753Y376113D01*
X226753Y378377D02*
X238387Y378377D01*
X246753Y364793D02*
X258387Y364793D01*
X246753Y364793D02*
X246753Y379427D01*
X258387Y379427D01*
X258387Y364793D01*
X258387Y367057D02*
X246753Y367057D01*
X246753Y369321D02*
X258387Y369321D01*
X258387Y371585D02*
X246753Y371585D01*
X246753Y373849D02*
X258387Y373849D01*
X258387Y376113D02*
X246753Y376113D01*
X246753Y378377D02*
X258387Y378377D01*
X303833Y140277D02*
X303833Y128643D01*
X303833Y140277D02*
X318467Y140277D01*
X318467Y128643D01*
X303833Y128643D01*
X303833Y130907D02*
X318467Y130907D01*
X318467Y133171D02*
X303833Y133171D01*
X303833Y135435D02*
X318467Y135435D01*
X318467Y137699D02*
X303833Y137699D01*
X303833Y139963D02*
X318467Y139963D01*
X303833Y120277D02*
X303833Y108643D01*
X303833Y120277D02*
X318467Y120277D01*
X318467Y108643D01*
X303833Y108643D01*
X303833Y110907D02*
X318467Y110907D01*
X318467Y113171D02*
X303833Y113171D01*
X303833Y115435D02*
X318467Y115435D01*
X318467Y117699D02*
X303833Y117699D01*
X303833Y119963D02*
X318467Y119963D01*
X306373Y592193D02*
X306373Y603827D01*
X321007Y603827D01*
X321007Y592193D01*
X306373Y592193D01*
X306373Y594457D02*
X321007Y594457D01*
X321007Y596721D02*
X306373Y596721D01*
X306373Y598985D02*
X321007Y598985D01*
X321007Y601249D02*
X306373Y601249D01*
X306373Y603513D02*
X321007Y603513D01*
X306373Y583827D02*
X306373Y572193D01*
X306373Y583827D02*
X321007Y583827D01*
X321007Y572193D01*
X306373Y572193D01*
X306373Y574457D02*
X321007Y574457D01*
X321007Y576721D02*
X306373Y576721D01*
X306373Y578985D02*
X321007Y578985D01*
X321007Y581249D02*
X306373Y581249D01*
X306373Y583513D02*
X321007Y583513D01*
X385113Y151707D02*
X385113Y140073D01*
X385113Y151707D02*
X399747Y151707D01*
X399747Y140073D01*
X385113Y140073D01*
X385113Y142337D02*
X399747Y142337D01*
X399747Y144601D02*
X385113Y144601D01*
X385113Y146865D02*
X399747Y146865D01*
X399747Y149129D02*
X385113Y149129D01*
X385113Y151393D02*
X399747Y151393D01*
X385113Y131707D02*
X385113Y120073D01*
X385113Y131707D02*
X399747Y131707D01*
X399747Y120073D01*
X385113Y120073D01*
X385113Y122337D02*
X399747Y122337D01*
X399747Y124601D02*
X385113Y124601D01*
X385113Y126865D02*
X399747Y126865D01*
X399747Y129129D02*
X385113Y129129D01*
X385113Y131393D02*
X399747Y131393D01*
X411853Y94947D02*
X423487Y94947D01*
X423487Y80313D01*
X411853Y80313D01*
X411853Y94947D01*
X411853Y82577D02*
X423487Y82577D01*
X423487Y84841D02*
X411853Y84841D01*
X411853Y87105D02*
X423487Y87105D01*
X423487Y89369D02*
X411853Y89369D01*
X411853Y91633D02*
X423487Y91633D01*
X423487Y93897D02*
X411853Y93897D01*
X403487Y94947D02*
X391853Y94947D01*
X403487Y94947D02*
X403487Y80313D01*
X391853Y80313D01*
X391853Y94947D01*
X391853Y82577D02*
X403487Y82577D01*
X403487Y84841D02*
X391853Y84841D01*
X391853Y87105D02*
X403487Y87105D01*
X403487Y89369D02*
X391853Y89369D01*
X391853Y91633D02*
X403487Y91633D01*
X403487Y93897D02*
X391853Y93897D01*
X522663Y294943D02*
X534297Y294943D01*
X522663Y294943D02*
X522663Y309577D01*
X534297Y309577D01*
X534297Y294943D01*
X534297Y297207D02*
X522663Y297207D01*
X522663Y299471D02*
X534297Y299471D01*
X534297Y301735D02*
X522663Y301735D01*
X522663Y303999D02*
X534297Y303999D01*
X534297Y306263D02*
X522663Y306263D01*
X522663Y308527D02*
X534297Y308527D01*
X542663Y294943D02*
X554297Y294943D01*
X542663Y294943D02*
X542663Y309577D01*
X554297Y309577D01*
X554297Y294943D01*
X554297Y297207D02*
X542663Y297207D01*
X542663Y299471D02*
X554297Y299471D01*
X554297Y301735D02*
X542663Y301735D01*
X542663Y303999D02*
X554297Y303999D01*
X554297Y306263D02*
X542663Y306263D01*
X542663Y308527D02*
X554297Y308527D01*
X534297Y341933D02*
X522663Y341933D01*
X522663Y356567D01*
X534297Y356567D01*
X534297Y341933D01*
X534297Y344197D02*
X522663Y344197D01*
X522663Y346461D02*
X534297Y346461D01*
X534297Y348725D02*
X522663Y348725D01*
X522663Y350989D02*
X534297Y350989D01*
X534297Y353253D02*
X522663Y353253D01*
X522663Y355517D02*
X534297Y355517D01*
X542663Y341933D02*
X554297Y341933D01*
X542663Y341933D02*
X542663Y356567D01*
X554297Y356567D01*
X554297Y341933D01*
X554297Y344197D02*
X542663Y344197D01*
X542663Y346461D02*
X554297Y346461D01*
X554297Y348725D02*
X542663Y348725D01*
X542663Y350989D02*
X554297Y350989D01*
X554297Y353253D02*
X542663Y353253D01*
X542663Y355517D02*
X554297Y355517D01*
X530487Y407973D02*
X518853Y407973D01*
X518853Y422607D01*
X530487Y422607D01*
X530487Y407973D01*
X530487Y410237D02*
X518853Y410237D01*
X518853Y412501D02*
X530487Y412501D01*
X530487Y414765D02*
X518853Y414765D01*
X518853Y417029D02*
X530487Y417029D01*
X530487Y419293D02*
X518853Y419293D01*
X518853Y421557D02*
X530487Y421557D01*
X538853Y407973D02*
X550487Y407973D01*
X538853Y407973D02*
X538853Y422607D01*
X550487Y422607D01*
X550487Y407973D01*
X550487Y410237D02*
X538853Y410237D01*
X538853Y412501D02*
X550487Y412501D01*
X550487Y414765D02*
X538853Y414765D01*
X538853Y417029D02*
X550487Y417029D01*
X550487Y419293D02*
X538853Y419293D01*
X538853Y421557D02*
X550487Y421557D01*
X532889Y566744D02*
X524662Y574971D01*
X535009Y585318D01*
X543236Y577091D01*
X532889Y566744D01*
X535153Y569008D02*
X530625Y569008D01*
X528361Y571272D02*
X537417Y571272D01*
X539681Y573536D02*
X526097Y573536D01*
X525491Y575800D02*
X541945Y575800D01*
X542263Y578064D02*
X527755Y578064D01*
X530019Y580328D02*
X539999Y580328D01*
X537735Y582592D02*
X532283Y582592D01*
X534547Y584856D02*
X535471Y584856D01*
X538804Y560829D02*
X547031Y552602D01*
X538804Y560829D02*
X549151Y571176D01*
X557378Y562949D01*
X547031Y552602D01*
X549295Y554866D02*
X544767Y554866D01*
X542503Y557130D02*
X551559Y557130D01*
X553823Y559394D02*
X540239Y559394D01*
X539633Y561658D02*
X556087Y561658D01*
X556405Y563922D02*
X541897Y563922D01*
X544161Y566186D02*
X554141Y566186D01*
X551877Y568450D02*
X546425Y568450D01*
X548689Y570714D02*
X549613Y570714D01*
D12*
X424472Y143333D02*
X410288Y143333D01*
X410288Y148767D01*
X424472Y148767D01*
X424472Y143333D01*
X424472Y144963D02*
X410288Y144963D01*
X410288Y146593D02*
X424472Y146593D01*
X424472Y148223D02*
X410288Y148223D01*
X410288Y130633D02*
X424472Y130633D01*
X410288Y130633D02*
X410288Y136067D01*
X424472Y136067D01*
X424472Y130633D01*
X424472Y132263D02*
X410288Y132263D01*
X410288Y133893D02*
X424472Y133893D01*
X424472Y135523D02*
X410288Y135523D01*
X410288Y117933D02*
X424472Y117933D01*
X410288Y117933D02*
X410288Y123367D01*
X424472Y123367D01*
X424472Y117933D01*
X424472Y119563D02*
X410288Y119563D01*
X410288Y121193D02*
X424472Y121193D01*
X424472Y122823D02*
X410288Y122823D01*
X410288Y105233D02*
X424472Y105233D01*
X410288Y105233D02*
X410288Y110667D01*
X424472Y110667D01*
X424472Y105233D01*
X424472Y106863D02*
X410288Y106863D01*
X410288Y108493D02*
X424472Y108493D01*
X424472Y110123D02*
X410288Y110123D01*
X464528Y105233D02*
X478712Y105233D01*
X464528Y105233D02*
X464528Y110667D01*
X478712Y110667D01*
X478712Y105233D01*
X478712Y106863D02*
X464528Y106863D01*
X464528Y108493D02*
X478712Y108493D01*
X478712Y110123D02*
X464528Y110123D01*
X464528Y117933D02*
X478712Y117933D01*
X464528Y117933D02*
X464528Y123367D01*
X478712Y123367D01*
X478712Y117933D01*
X478712Y119563D02*
X464528Y119563D01*
X464528Y121193D02*
X478712Y121193D01*
X478712Y122823D02*
X464528Y122823D01*
X464528Y130633D02*
X478712Y130633D01*
X464528Y130633D02*
X464528Y136067D01*
X478712Y136067D01*
X478712Y130633D01*
X478712Y132263D02*
X464528Y132263D01*
X464528Y133893D02*
X478712Y133893D01*
X478712Y135523D02*
X464528Y135523D01*
X464528Y143333D02*
X478712Y143333D01*
X464528Y143333D02*
X464528Y148767D01*
X478712Y148767D01*
X478712Y143333D01*
X478712Y144963D02*
X464528Y144963D01*
X464528Y146593D02*
X478712Y146593D01*
X478712Y148223D02*
X464528Y148223D01*
D13*
X379132Y616382D02*
X365668Y616382D01*
X379132Y616382D02*
X379132Y614418D01*
X365668Y614418D01*
X365668Y616382D01*
X365668Y615885D02*
X379132Y615885D01*
X379132Y621382D02*
X365668Y621382D01*
X379132Y621382D02*
X379132Y619418D01*
X365668Y619418D01*
X365668Y621382D01*
X365668Y620885D02*
X379132Y620885D01*
X379132Y626382D02*
X365668Y626382D01*
X379132Y626382D02*
X379132Y624418D01*
X365668Y624418D01*
X365668Y626382D01*
X365668Y625885D02*
X379132Y625885D01*
X379132Y631382D02*
X365668Y631382D01*
X379132Y631382D02*
X379132Y629418D01*
X365668Y629418D01*
X365668Y631382D01*
X365668Y630885D02*
X379132Y630885D01*
X379132Y636382D02*
X365668Y636382D01*
X379132Y636382D02*
X379132Y634418D01*
X365668Y634418D01*
X365668Y636382D01*
X365668Y635885D02*
X379132Y635885D01*
X379132Y641382D02*
X365668Y641382D01*
X379132Y641382D02*
X379132Y639418D01*
X365668Y639418D01*
X365668Y641382D01*
X365668Y640885D02*
X379132Y640885D01*
X379132Y646382D02*
X365668Y646382D01*
X379132Y646382D02*
X379132Y644418D01*
X365668Y644418D01*
X365668Y646382D01*
X365668Y645885D02*
X379132Y645885D01*
X379132Y651382D02*
X365668Y651382D01*
X379132Y651382D02*
X379132Y649418D01*
X365668Y649418D01*
X365668Y651382D01*
X365668Y650885D02*
X379132Y650885D01*
X379132Y656382D02*
X365668Y656382D01*
X379132Y656382D02*
X379132Y654418D01*
X365668Y654418D01*
X365668Y656382D01*
X365668Y655885D02*
X379132Y655885D01*
X379132Y661382D02*
X365668Y661382D01*
X379132Y661382D02*
X379132Y659418D01*
X365668Y659418D01*
X365668Y661382D01*
X365668Y660885D02*
X379132Y660885D01*
X379132Y666382D02*
X365668Y666382D01*
X379132Y666382D02*
X379132Y664418D01*
X365668Y664418D01*
X365668Y666382D01*
X365668Y665885D02*
X379132Y665885D01*
X379132Y671382D02*
X365668Y671382D01*
X379132Y671382D02*
X379132Y669418D01*
X365668Y669418D01*
X365668Y671382D01*
X365668Y670885D02*
X379132Y670885D01*
X379132Y676382D02*
X365668Y676382D01*
X379132Y676382D02*
X379132Y674418D01*
X365668Y674418D01*
X365668Y676382D01*
X365668Y675885D02*
X379132Y675885D01*
X379132Y681382D02*
X365668Y681382D01*
X379132Y681382D02*
X379132Y679418D01*
X365668Y679418D01*
X365668Y681382D01*
X365668Y680885D02*
X379132Y680885D01*
X379132Y686382D02*
X365668Y686382D01*
X379132Y686382D02*
X379132Y684418D01*
X365668Y684418D01*
X365668Y686382D01*
X365668Y685885D02*
X379132Y685885D01*
X379132Y691382D02*
X365668Y691382D01*
X379132Y691382D02*
X379132Y689418D01*
X365668Y689418D01*
X365668Y691382D01*
X365668Y690885D02*
X379132Y690885D01*
X379132Y696382D02*
X365668Y696382D01*
X379132Y696382D02*
X379132Y694418D01*
X365668Y694418D01*
X365668Y696382D01*
X365668Y695885D02*
X379132Y695885D01*
X379132Y701382D02*
X365668Y701382D01*
X379132Y701382D02*
X379132Y699418D01*
X365668Y699418D01*
X365668Y701382D01*
X365668Y700885D02*
X379132Y700885D01*
X379132Y706382D02*
X365668Y706382D01*
X379132Y706382D02*
X379132Y704418D01*
X365668Y704418D01*
X365668Y706382D01*
X365668Y705885D02*
X379132Y705885D01*
X320632Y706382D02*
X307168Y706382D01*
X320632Y706382D02*
X320632Y704418D01*
X307168Y704418D01*
X307168Y706382D01*
X307168Y705885D02*
X320632Y705885D01*
X320632Y701382D02*
X307168Y701382D01*
X320632Y701382D02*
X320632Y699418D01*
X307168Y699418D01*
X307168Y701382D01*
X307168Y700885D02*
X320632Y700885D01*
X320632Y696382D02*
X307168Y696382D01*
X320632Y696382D02*
X320632Y694418D01*
X307168Y694418D01*
X307168Y696382D01*
X307168Y695885D02*
X320632Y695885D01*
X320632Y691382D02*
X307168Y691382D01*
X320632Y691382D02*
X320632Y689418D01*
X307168Y689418D01*
X307168Y691382D01*
X307168Y690885D02*
X320632Y690885D01*
X320632Y686382D02*
X307168Y686382D01*
X320632Y686382D02*
X320632Y684418D01*
X307168Y684418D01*
X307168Y686382D01*
X307168Y685885D02*
X320632Y685885D01*
X320632Y681382D02*
X307168Y681382D01*
X320632Y681382D02*
X320632Y679418D01*
X307168Y679418D01*
X307168Y681382D01*
X307168Y680885D02*
X320632Y680885D01*
X320632Y676382D02*
X307168Y676382D01*
X320632Y676382D02*
X320632Y674418D01*
X307168Y674418D01*
X307168Y676382D01*
X307168Y675885D02*
X320632Y675885D01*
X320632Y671382D02*
X307168Y671382D01*
X320632Y671382D02*
X320632Y669418D01*
X307168Y669418D01*
X307168Y671382D01*
X307168Y670885D02*
X320632Y670885D01*
X320632Y666382D02*
X307168Y666382D01*
X320632Y666382D02*
X320632Y664418D01*
X307168Y664418D01*
X307168Y666382D01*
X307168Y665885D02*
X320632Y665885D01*
X320632Y661382D02*
X307168Y661382D01*
X320632Y661382D02*
X320632Y659418D01*
X307168Y659418D01*
X307168Y661382D01*
X307168Y660885D02*
X320632Y660885D01*
X320632Y656382D02*
X307168Y656382D01*
X320632Y656382D02*
X320632Y654418D01*
X307168Y654418D01*
X307168Y656382D01*
X307168Y655885D02*
X320632Y655885D01*
X320632Y651382D02*
X307168Y651382D01*
X320632Y651382D02*
X320632Y649418D01*
X307168Y649418D01*
X307168Y651382D01*
X307168Y650885D02*
X320632Y650885D01*
X320632Y646382D02*
X307168Y646382D01*
X320632Y646382D02*
X320632Y644418D01*
X307168Y644418D01*
X307168Y646382D01*
X307168Y645885D02*
X320632Y645885D01*
X320632Y641382D02*
X307168Y641382D01*
X320632Y641382D02*
X320632Y639418D01*
X307168Y639418D01*
X307168Y641382D01*
X307168Y640885D02*
X320632Y640885D01*
X320632Y636382D02*
X307168Y636382D01*
X320632Y636382D02*
X320632Y634418D01*
X307168Y634418D01*
X307168Y636382D01*
X307168Y635885D02*
X320632Y635885D01*
X320632Y631382D02*
X307168Y631382D01*
X320632Y631382D02*
X320632Y629418D01*
X307168Y629418D01*
X307168Y631382D01*
X307168Y630885D02*
X320632Y630885D01*
X320632Y626382D02*
X307168Y626382D01*
X320632Y626382D02*
X320632Y624418D01*
X307168Y624418D01*
X307168Y626382D01*
X307168Y625885D02*
X320632Y625885D01*
X320632Y621382D02*
X307168Y621382D01*
X320632Y621382D02*
X320632Y619418D01*
X307168Y619418D01*
X307168Y621382D01*
X307168Y620885D02*
X320632Y620885D01*
X320632Y616382D02*
X307168Y616382D01*
X320632Y616382D02*
X320632Y614418D01*
X307168Y614418D01*
X307168Y616382D01*
X307168Y615885D02*
X320632Y615885D01*
D14*
X329223Y637473D02*
X329223Y683327D01*
X357077Y683327D01*
X357077Y637473D01*
X329223Y637473D01*
X329223Y641427D02*
X357077Y641427D01*
X357077Y645381D02*
X329223Y645381D01*
X329223Y649335D02*
X357077Y649335D01*
X357077Y653289D02*
X329223Y653289D01*
X329223Y657243D02*
X357077Y657243D01*
X357077Y661197D02*
X329223Y661197D01*
X329223Y665151D02*
X357077Y665151D01*
X357077Y669105D02*
X329223Y669105D01*
X329223Y673059D02*
X357077Y673059D01*
X357077Y677013D02*
X329223Y677013D01*
X329223Y680967D02*
X357077Y680967D01*
D15*
X548191Y111541D02*
X548191Y101519D01*
X544169Y101519D01*
X544169Y111541D01*
X548191Y111541D01*
X548191Y102932D02*
X544169Y102932D01*
X544169Y104345D02*
X548191Y104345D01*
X548191Y105758D02*
X544169Y105758D01*
X544169Y107171D02*
X548191Y107171D01*
X548191Y108584D02*
X544169Y108584D01*
X544169Y109997D02*
X548191Y109997D01*
X548191Y111410D02*
X544169Y111410D01*
X558191Y111541D02*
X558191Y101519D01*
X554169Y101519D01*
X554169Y111541D01*
X558191Y111541D01*
X558191Y102932D02*
X554169Y102932D01*
X554169Y104345D02*
X558191Y104345D01*
X558191Y105758D02*
X554169Y105758D01*
X554169Y107171D02*
X558191Y107171D01*
X558191Y108584D02*
X554169Y108584D01*
X554169Y109997D02*
X558191Y109997D01*
X558191Y111410D02*
X554169Y111410D01*
X553191Y114519D02*
X553191Y124541D01*
X553191Y114519D02*
X549169Y114519D01*
X549169Y124541D01*
X553191Y124541D01*
X553191Y115932D02*
X549169Y115932D01*
X549169Y117345D02*
X553191Y117345D01*
X553191Y118758D02*
X549169Y118758D01*
X549169Y120171D02*
X553191Y120171D01*
X553191Y121584D02*
X549169Y121584D01*
X549169Y122997D02*
X553191Y122997D01*
X553191Y124410D02*
X549169Y124410D01*
D16*
X254000Y42199D02*
X254000Y32801D01*
X279400Y32801D02*
X279400Y42199D01*
X304800Y42199D02*
X304800Y32801D01*
X330200Y32801D02*
X330200Y42199D01*
X355600Y42199D02*
X355600Y32801D01*
X381000Y32801D02*
X381000Y42199D01*
X406400Y42199D02*
X406400Y32801D01*
X431800Y32801D02*
X431800Y42199D01*
D17*
X420514Y196141D02*
X427308Y197961D01*
X428974Y191745D01*
X422180Y189925D01*
X420514Y196141D01*
X421718Y191649D02*
X428616Y191649D01*
X428538Y193373D02*
X421256Y193373D01*
X420794Y195097D02*
X428076Y195097D01*
X427614Y196821D02*
X423052Y196821D01*
X411464Y193715D02*
X404670Y191895D01*
X411464Y193715D02*
X413130Y187499D01*
X406336Y185679D01*
X404670Y191895D01*
X405874Y187403D02*
X412772Y187403D01*
X412694Y189127D02*
X405412Y189127D01*
X404950Y190851D02*
X412232Y190851D01*
X411770Y192575D02*
X407208Y192575D01*
X481284Y717856D02*
X475194Y721373D01*
X478412Y726946D01*
X484502Y723429D01*
X481284Y717856D01*
X482279Y719580D02*
X478299Y719580D01*
X475313Y721304D02*
X483275Y721304D01*
X484270Y723028D02*
X476150Y723028D01*
X477145Y724752D02*
X482211Y724752D01*
X479226Y726476D02*
X478141Y726476D01*
X489398Y713172D02*
X495488Y709655D01*
X489398Y713172D02*
X492616Y718745D01*
X498706Y715228D01*
X495488Y709655D01*
X496483Y711379D02*
X492503Y711379D01*
X489517Y713103D02*
X497479Y713103D01*
X498474Y714827D02*
X490354Y714827D01*
X491349Y716551D02*
X496415Y716551D01*
X493430Y718275D02*
X492345Y718275D01*
X412342Y745105D02*
X405548Y746925D01*
X407214Y753141D01*
X414008Y751321D01*
X412342Y745105D01*
X412804Y746829D02*
X405906Y746829D01*
X405984Y748553D02*
X413266Y748553D01*
X413728Y750277D02*
X406446Y750277D01*
X406908Y752001D02*
X411470Y752001D01*
X421392Y742679D02*
X428186Y740859D01*
X421392Y742679D02*
X423058Y748895D01*
X429852Y747075D01*
X428186Y740859D01*
X428648Y742583D02*
X421750Y742583D01*
X421828Y744307D02*
X429110Y744307D01*
X429572Y746031D02*
X422290Y746031D01*
X422752Y747755D02*
X427314Y747755D01*
X354518Y760138D02*
X347484Y760138D01*
X354518Y760138D02*
X354518Y753702D01*
X347484Y753702D01*
X347484Y760138D01*
X347484Y755426D02*
X354518Y755426D01*
X354518Y757150D02*
X347484Y757150D01*
X347484Y758874D02*
X354518Y758874D01*
X338116Y760138D02*
X331082Y760138D01*
X338116Y760138D02*
X338116Y753702D01*
X331082Y753702D01*
X331082Y760138D01*
X331082Y755426D02*
X338116Y755426D01*
X338116Y757150D02*
X331082Y757150D01*
X331082Y758874D02*
X338116Y758874D01*
X279522Y753339D02*
X272728Y751519D01*
X279522Y753339D02*
X281188Y747123D01*
X274394Y745303D01*
X272728Y751519D01*
X273932Y747027D02*
X280830Y747027D01*
X280752Y748751D02*
X273470Y748751D01*
X273008Y750475D02*
X280290Y750475D01*
X279828Y752199D02*
X275266Y752199D01*
X263678Y749093D02*
X256884Y747273D01*
X263678Y749093D02*
X265344Y742877D01*
X258550Y741057D01*
X256884Y747273D01*
X258088Y742781D02*
X264986Y742781D01*
X264908Y744505D02*
X257626Y744505D01*
X257164Y746229D02*
X264446Y746229D01*
X263984Y747953D02*
X259422Y747953D01*
X208277Y727221D02*
X202187Y723704D01*
X208277Y727221D02*
X211495Y721648D01*
X205405Y718131D01*
X202187Y723704D01*
X204410Y719855D02*
X208390Y719855D01*
X211376Y721579D02*
X203414Y721579D01*
X202419Y723303D02*
X210539Y723303D01*
X209544Y725027D02*
X204478Y725027D01*
X207463Y726751D02*
X208548Y726751D01*
X194073Y719020D02*
X187983Y715503D01*
X194073Y719020D02*
X197291Y713447D01*
X191201Y709930D01*
X187983Y715503D01*
X190206Y711654D02*
X194186Y711654D01*
X197172Y713378D02*
X189210Y713378D01*
X188215Y715102D02*
X196335Y715102D01*
X195340Y716826D02*
X190274Y716826D01*
X193259Y718550D02*
X194344Y718550D01*
X146216Y683561D02*
X141243Y678588D01*
X146216Y683561D02*
X150767Y679010D01*
X145794Y674037D01*
X141243Y678588D01*
X144070Y675761D02*
X147518Y675761D01*
X149242Y677485D02*
X142346Y677485D01*
X141864Y679209D02*
X150568Y679209D01*
X148844Y680933D02*
X143588Y680933D01*
X145312Y682657D02*
X147120Y682657D01*
X134618Y671963D02*
X129645Y666990D01*
X134618Y671963D02*
X139169Y667412D01*
X134196Y662439D01*
X129645Y666990D01*
X132472Y664163D02*
X135920Y664163D01*
X137644Y665887D02*
X130748Y665887D01*
X130266Y667611D02*
X138970Y667611D01*
X137246Y669335D02*
X131990Y669335D01*
X133714Y671059D02*
X135522Y671059D01*
X97561Y625331D02*
X94044Y619241D01*
X97561Y625331D02*
X103134Y622113D01*
X99617Y616023D01*
X94044Y619241D01*
X96631Y617747D02*
X100613Y617747D01*
X101608Y619471D02*
X94177Y619471D01*
X95172Y621195D02*
X102604Y621195D01*
X101738Y622919D02*
X96168Y622919D01*
X97164Y624643D02*
X98752Y624643D01*
X89360Y611127D02*
X85843Y605037D01*
X89360Y611127D02*
X94933Y607909D01*
X91416Y601819D01*
X85843Y605037D01*
X88430Y603543D02*
X92412Y603543D01*
X93407Y605267D02*
X85976Y605267D01*
X86971Y606991D02*
X94403Y606991D01*
X93537Y608715D02*
X87967Y608715D01*
X88963Y610439D02*
X90551Y610439D01*
X65625Y556492D02*
X63805Y549698D01*
X65625Y556492D02*
X71841Y554826D01*
X70021Y548032D01*
X63805Y549698D01*
X63821Y549756D02*
X70483Y549756D01*
X70945Y551480D02*
X64282Y551480D01*
X64744Y553204D02*
X71406Y553204D01*
X71460Y554928D02*
X65206Y554928D01*
X61379Y540648D02*
X59559Y533854D01*
X61379Y540648D02*
X67595Y538982D01*
X65775Y532188D01*
X59559Y533854D01*
X59575Y533912D02*
X66237Y533912D01*
X66699Y535636D02*
X60036Y535636D01*
X60498Y537360D02*
X67160Y537360D01*
X67214Y539084D02*
X60960Y539084D01*
X52582Y481738D02*
X52582Y474704D01*
X52582Y481738D02*
X59018Y481738D01*
X59018Y474704D01*
X52582Y474704D01*
X52582Y476428D02*
X59018Y476428D01*
X59018Y478152D02*
X52582Y478152D01*
X52582Y479876D02*
X59018Y479876D01*
X59018Y481600D02*
X52582Y481600D01*
X52582Y465336D02*
X52582Y458302D01*
X52582Y465336D02*
X59018Y465336D01*
X59018Y458302D01*
X52582Y458302D01*
X52582Y460026D02*
X59018Y460026D01*
X59018Y461750D02*
X52582Y461750D01*
X52582Y463474D02*
X59018Y463474D01*
X59018Y465198D02*
X52582Y465198D01*
X59323Y406163D02*
X61143Y399369D01*
X59323Y406163D02*
X65539Y407829D01*
X67359Y401035D01*
X61143Y399369D01*
X60681Y401093D02*
X67343Y401093D01*
X66882Y402817D02*
X60219Y402817D01*
X59758Y404541D02*
X66420Y404541D01*
X65958Y406265D02*
X59704Y406265D01*
X63568Y390319D02*
X65388Y383525D01*
X63568Y390319D02*
X69784Y391985D01*
X71604Y385191D01*
X65388Y383525D01*
X64926Y385249D02*
X71588Y385249D01*
X71127Y386973D02*
X64464Y386973D01*
X64003Y388697D02*
X70665Y388697D01*
X70203Y390421D02*
X63949Y390421D01*
X488608Y225466D02*
X494698Y228983D01*
X497916Y223410D01*
X491826Y219893D01*
X488608Y225466D01*
X490831Y221617D02*
X494811Y221617D01*
X497797Y223341D02*
X489835Y223341D01*
X488840Y225065D02*
X496960Y225065D01*
X495965Y226789D02*
X490899Y226789D01*
X493884Y228513D02*
X494969Y228513D01*
X480494Y220782D02*
X474404Y217265D01*
X480494Y220782D02*
X483712Y215209D01*
X477622Y211692D01*
X474404Y217265D01*
X476627Y213416D02*
X480607Y213416D01*
X483593Y215140D02*
X475631Y215140D01*
X474636Y216864D02*
X482756Y216864D01*
X481761Y218588D02*
X476695Y218588D01*
X479680Y220312D02*
X480765Y220312D01*
X88903Y328748D02*
X85386Y334838D01*
X90959Y338056D01*
X94476Y331966D01*
X88903Y328748D01*
X87907Y330472D02*
X91889Y330472D01*
X94343Y332196D02*
X86912Y332196D01*
X85916Y333920D02*
X93348Y333920D01*
X92352Y335644D02*
X86782Y335644D01*
X89768Y337368D02*
X91356Y337368D01*
X93587Y320634D02*
X97104Y314544D01*
X93587Y320634D02*
X99160Y323852D01*
X102677Y317762D01*
X97104Y314544D01*
X96108Y316268D02*
X100090Y316268D01*
X102544Y317992D02*
X95113Y317992D01*
X94117Y319716D02*
X101549Y319716D01*
X100553Y321440D02*
X94983Y321440D01*
X97969Y323164D02*
X99557Y323164D01*
X128998Y272740D02*
X133971Y267767D01*
X128998Y272740D02*
X133549Y277291D01*
X138522Y272318D01*
X133971Y267767D01*
X135695Y269491D02*
X132247Y269491D01*
X130523Y271215D02*
X137419Y271215D01*
X137901Y272939D02*
X129197Y272939D01*
X130921Y274663D02*
X136177Y274663D01*
X134453Y276387D02*
X132645Y276387D01*
X140596Y261142D02*
X145569Y256169D01*
X140596Y261142D02*
X145147Y265693D01*
X150120Y260720D01*
X145569Y256169D01*
X147293Y257893D02*
X143845Y257893D01*
X142121Y259617D02*
X149017Y259617D01*
X149499Y261341D02*
X140795Y261341D01*
X142519Y263065D02*
X147775Y263065D01*
X146051Y264789D02*
X144243Y264789D01*
X204630Y220969D02*
X210391Y216934D01*
X206700Y211663D01*
X200939Y215698D01*
X204630Y220969D01*
X204239Y213387D02*
X207907Y213387D01*
X209114Y215111D02*
X201777Y215111D01*
X201735Y216835D02*
X210322Y216835D01*
X208071Y218559D02*
X202942Y218559D01*
X204150Y220283D02*
X205609Y220283D01*
X196955Y226342D02*
X191194Y230377D01*
X196955Y226342D02*
X193264Y221071D01*
X187503Y225106D01*
X191194Y230377D01*
X190803Y222795D02*
X194471Y222795D01*
X195678Y224519D02*
X188341Y224519D01*
X188299Y226243D02*
X196886Y226243D01*
X194635Y227967D02*
X189506Y227967D01*
X190714Y229691D02*
X192173Y229691D01*
X256001Y192105D02*
X262795Y190285D01*
X256001Y192105D02*
X257667Y198321D01*
X264461Y196501D01*
X262795Y190285D01*
X263257Y192009D02*
X256359Y192009D01*
X256437Y193733D02*
X263719Y193733D01*
X264181Y195457D02*
X256899Y195457D01*
X257361Y197181D02*
X261923Y197181D01*
X271845Y187859D02*
X278639Y186039D01*
X271845Y187859D02*
X273511Y194075D01*
X280305Y192255D01*
X278639Y186039D01*
X279101Y187763D02*
X272203Y187763D01*
X272281Y189487D02*
X279563Y189487D01*
X280025Y191211D02*
X272743Y191211D01*
X273205Y192935D02*
X277767Y192935D01*
X330746Y179002D02*
X337780Y179002D01*
X330746Y179002D02*
X330746Y185438D01*
X337780Y185438D01*
X337780Y179002D01*
X337780Y180726D02*
X330746Y180726D01*
X330746Y182450D02*
X337780Y182450D01*
X337780Y184174D02*
X330746Y184174D01*
X347148Y179002D02*
X354182Y179002D01*
X347148Y179002D02*
X347148Y185438D01*
X354182Y185438D01*
X354182Y179002D01*
X354182Y180726D02*
X347148Y180726D01*
X347148Y182450D02*
X354182Y182450D01*
X354182Y184174D02*
X347148Y184174D01*
X542002Y72982D02*
X549036Y72982D01*
X542002Y72982D02*
X542002Y79418D01*
X549036Y79418D01*
X549036Y72982D01*
X549036Y74706D02*
X542002Y74706D01*
X542002Y76430D02*
X549036Y76430D01*
X549036Y78154D02*
X542002Y78154D01*
X558404Y72982D02*
X565438Y72982D01*
X558404Y72982D02*
X558404Y79418D01*
X565438Y79418D01*
X565438Y72982D01*
X565438Y74706D02*
X558404Y74706D01*
X558404Y76430D02*
X565438Y76430D01*
X565438Y78154D02*
X558404Y78154D01*
X546807Y271388D02*
X551780Y276361D01*
X556331Y271810D01*
X551358Y266837D01*
X546807Y271388D01*
X549634Y268561D02*
X553082Y268561D01*
X554806Y270285D02*
X547910Y270285D01*
X547428Y272009D02*
X556132Y272009D01*
X554408Y273733D02*
X549152Y273733D01*
X550876Y275457D02*
X552684Y275457D01*
X540182Y264763D02*
X535209Y259790D01*
X540182Y264763D02*
X544733Y260212D01*
X539760Y255239D01*
X535209Y259790D01*
X538036Y256963D02*
X541484Y256963D01*
X543208Y258687D02*
X536312Y258687D01*
X535830Y260411D02*
X544534Y260411D01*
X542810Y262135D02*
X537554Y262135D01*
X539278Y263859D02*
X541086Y263859D01*
X591138Y330826D02*
X594655Y336916D01*
X600228Y333698D01*
X596711Y327608D01*
X591138Y330826D01*
X593725Y329332D02*
X597707Y329332D01*
X598702Y331056D02*
X591271Y331056D01*
X592266Y332780D02*
X599698Y332780D01*
X598832Y334504D02*
X593262Y334504D01*
X594258Y336228D02*
X595846Y336228D01*
X586454Y322712D02*
X582937Y316622D01*
X586454Y322712D02*
X592027Y319494D01*
X588510Y313404D01*
X582937Y316622D01*
X585524Y315128D02*
X589506Y315128D01*
X590501Y316852D02*
X583070Y316852D01*
X584065Y318576D02*
X591497Y318576D01*
X590631Y320300D02*
X585061Y320300D01*
X586057Y322024D02*
X587645Y322024D01*
X618585Y399708D02*
X620405Y406502D01*
X626621Y404836D01*
X624801Y398042D01*
X618585Y399708D01*
X618601Y399766D02*
X625263Y399766D01*
X625725Y401490D02*
X619062Y401490D01*
X619524Y403214D02*
X626186Y403214D01*
X626240Y404938D02*
X619986Y404938D01*
X616159Y390658D02*
X614339Y383864D01*
X616159Y390658D02*
X622375Y388992D01*
X620555Y382198D01*
X614339Y383864D01*
X614355Y383922D02*
X621017Y383922D01*
X621479Y385646D02*
X614816Y385646D01*
X615278Y387370D02*
X621940Y387370D01*
X621994Y389094D02*
X615740Y389094D01*
X627282Y474254D02*
X627282Y481288D01*
X633718Y481288D01*
X633718Y474254D01*
X627282Y474254D01*
X627282Y475978D02*
X633718Y475978D01*
X633718Y477702D02*
X627282Y477702D01*
X627282Y479426D02*
X633718Y479426D01*
X633718Y481150D02*
X627282Y481150D01*
X627282Y464886D02*
X627282Y457852D01*
X627282Y464886D02*
X633718Y464886D01*
X633718Y457852D01*
X627282Y457852D01*
X627282Y459576D02*
X633718Y459576D01*
X633718Y461300D02*
X627282Y461300D01*
X627282Y463024D02*
X633718Y463024D01*
X633718Y464748D02*
X627282Y464748D01*
X616379Y547592D02*
X614559Y554386D01*
X620775Y556052D01*
X622595Y549258D01*
X616379Y547592D01*
X615917Y549316D02*
X622579Y549316D01*
X622118Y551040D02*
X615455Y551040D01*
X614994Y552764D02*
X621656Y552764D01*
X621194Y554488D02*
X614940Y554488D01*
X618805Y538542D02*
X620625Y531748D01*
X618805Y538542D02*
X625021Y540208D01*
X626841Y533414D01*
X620625Y531748D01*
X620163Y533472D02*
X626825Y533472D01*
X626364Y535196D02*
X619701Y535196D01*
X619240Y536920D02*
X625902Y536920D01*
X625440Y538644D02*
X619186Y538644D01*
X586912Y615618D02*
X583395Y621708D01*
X588968Y624926D01*
X592485Y618836D01*
X586912Y615618D01*
X585916Y617342D02*
X589898Y617342D01*
X592352Y619066D02*
X584921Y619066D01*
X583925Y620790D02*
X591357Y620790D01*
X590361Y622514D02*
X584791Y622514D01*
X587777Y624238D02*
X589365Y624238D01*
X591596Y607504D02*
X595113Y601414D01*
X591596Y607504D02*
X597169Y610722D01*
X600686Y604632D01*
X595113Y601414D01*
X594117Y603138D02*
X598099Y603138D01*
X600553Y604862D02*
X593122Y604862D01*
X592126Y606586D02*
X599558Y606586D01*
X598562Y608310D02*
X592992Y608310D01*
X595978Y610034D02*
X597566Y610034D01*
X540812Y673707D02*
X535839Y678680D01*
X540390Y683231D01*
X545363Y678258D01*
X540812Y673707D01*
X542536Y675431D02*
X539088Y675431D01*
X537364Y677155D02*
X544260Y677155D01*
X544742Y678879D02*
X536038Y678879D01*
X537762Y680603D02*
X543018Y680603D01*
X541294Y682327D02*
X539486Y682327D01*
X547437Y667082D02*
X552410Y662109D01*
X547437Y667082D02*
X551988Y671633D01*
X556961Y666660D01*
X552410Y662109D01*
X554134Y663833D02*
X550686Y663833D01*
X548962Y665557D02*
X555858Y665557D01*
X556340Y667281D02*
X547636Y667281D01*
X549360Y669005D02*
X554616Y669005D01*
X552892Y670729D02*
X551084Y670729D01*
D11*
X522437Y78597D02*
X522437Y66963D01*
X508803Y66963D01*
X508803Y78597D01*
X522437Y78597D01*
X522437Y69227D02*
X508803Y69227D01*
X508803Y71491D02*
X522437Y71491D01*
X522437Y73755D02*
X508803Y73755D01*
X508803Y76019D02*
X522437Y76019D01*
X522437Y78283D02*
X508803Y78283D01*
X522437Y83963D02*
X522437Y95597D01*
X522437Y83963D02*
X508803Y83963D01*
X508803Y95597D01*
X522437Y95597D01*
X522437Y86227D02*
X508803Y86227D01*
X508803Y88491D02*
X522437Y88491D01*
X522437Y90755D02*
X508803Y90755D01*
X508803Y93019D02*
X522437Y93019D01*
X522437Y95283D02*
X508803Y95283D01*
X571153Y38903D02*
X582787Y38903D01*
X571153Y38903D02*
X571153Y52537D01*
X582787Y52537D01*
X582787Y38903D01*
X582787Y41167D02*
X571153Y41167D01*
X571153Y43431D02*
X582787Y43431D01*
X582787Y45695D02*
X571153Y45695D01*
X571153Y47959D02*
X582787Y47959D01*
X582787Y50223D02*
X571153Y50223D01*
X571153Y52487D02*
X582787Y52487D01*
X588153Y38903D02*
X599787Y38903D01*
X588153Y38903D02*
X588153Y52537D01*
X599787Y52537D01*
X599787Y38903D01*
X599787Y41167D02*
X588153Y41167D01*
X588153Y43431D02*
X599787Y43431D01*
X599787Y45695D02*
X588153Y45695D01*
X588153Y47959D02*
X599787Y47959D01*
X599787Y50223D02*
X588153Y50223D01*
X588153Y52487D02*
X599787Y52487D01*
D18*
X488465Y47465D02*
X488465Y33535D01*
X482535Y33535D01*
X482535Y47465D01*
X488465Y47465D01*
X488465Y35217D02*
X482535Y35217D01*
X482535Y36899D02*
X488465Y36899D01*
X488465Y38581D02*
X482535Y38581D01*
X482535Y40263D02*
X488465Y40263D01*
X488465Y41945D02*
X482535Y41945D01*
X482535Y43627D02*
X488465Y43627D01*
X488465Y45309D02*
X482535Y45309D01*
X482535Y46991D02*
X488465Y46991D01*
X518465Y47465D02*
X518465Y33535D01*
X512535Y33535D01*
X512535Y47465D01*
X518465Y47465D01*
X518465Y35217D02*
X512535Y35217D01*
X512535Y36899D02*
X518465Y36899D01*
X518465Y38581D02*
X512535Y38581D01*
X512535Y40263D02*
X518465Y40263D01*
X518465Y41945D02*
X512535Y41945D01*
X512535Y43627D02*
X518465Y43627D01*
X518465Y45309D02*
X512535Y45309D01*
X512535Y46991D02*
X518465Y46991D01*
X533465Y47465D02*
X533465Y33535D01*
X527535Y33535D01*
X527535Y47465D01*
X533465Y47465D01*
X533465Y35217D02*
X527535Y35217D01*
X527535Y36899D02*
X533465Y36899D01*
X533465Y38581D02*
X527535Y38581D01*
X527535Y40263D02*
X533465Y40263D01*
X533465Y41945D02*
X527535Y41945D01*
X527535Y43627D02*
X533465Y43627D01*
X533465Y45309D02*
X527535Y45309D01*
X527535Y46991D02*
X533465Y46991D01*
D19*
X493000Y23000D03*
X523000Y23000D03*
D20*
X475976Y30024D02*
X467024Y30024D01*
X467024Y36976D01*
X475976Y36976D01*
X475976Y30024D01*
X475976Y31780D02*
X467024Y31780D01*
X467024Y33536D02*
X475976Y33536D01*
X475976Y35292D02*
X467024Y35292D01*
X467024Y9024D02*
X475976Y9024D01*
X467024Y9024D02*
X467024Y15976D01*
X475976Y15976D01*
X475976Y9024D01*
X475976Y10780D02*
X467024Y10780D01*
X467024Y12536D02*
X475976Y12536D01*
X475976Y14292D02*
X467024Y14292D01*
X540024Y9024D02*
X548976Y9024D01*
X540024Y9024D02*
X540024Y15976D01*
X548976Y15976D01*
X548976Y9024D01*
X548976Y10780D02*
X540024Y10780D01*
X540024Y12536D02*
X548976Y12536D01*
X548976Y14292D02*
X540024Y14292D01*
X540024Y30024D02*
X548976Y30024D01*
X540024Y30024D02*
X540024Y36976D01*
X548976Y36976D01*
X548976Y30024D01*
X548976Y31780D02*
X540024Y31780D01*
X540024Y33536D02*
X548976Y33536D01*
X548976Y35292D02*
X540024Y35292D01*
D21*
X270745Y142221D02*
X270745Y161055D01*
X275355Y161055D01*
X275355Y142221D01*
X270745Y142221D01*
X270745Y143681D02*
X275355Y143681D01*
X275355Y145141D02*
X270745Y145141D01*
X270745Y146601D02*
X275355Y146601D01*
X275355Y148061D02*
X270745Y148061D01*
X270745Y149521D02*
X275355Y149521D01*
X275355Y150981D02*
X270745Y150981D01*
X270745Y152441D02*
X275355Y152441D01*
X275355Y153901D02*
X270745Y153901D01*
X270745Y155361D02*
X275355Y155361D01*
X275355Y156821D02*
X270745Y156821D01*
X270745Y158281D02*
X275355Y158281D01*
X275355Y159741D02*
X270745Y159741D01*
X258045Y161055D02*
X258045Y142221D01*
X258045Y161055D02*
X262655Y161055D01*
X262655Y142221D01*
X258045Y142221D01*
X258045Y143681D02*
X262655Y143681D01*
X262655Y145141D02*
X258045Y145141D01*
X258045Y146601D02*
X262655Y146601D01*
X262655Y148061D02*
X258045Y148061D01*
X258045Y149521D02*
X262655Y149521D01*
X262655Y150981D02*
X258045Y150981D01*
X258045Y152441D02*
X262655Y152441D01*
X262655Y153901D02*
X258045Y153901D01*
X258045Y155361D02*
X262655Y155361D01*
X262655Y156821D02*
X258045Y156821D01*
X258045Y158281D02*
X262655Y158281D01*
X262655Y159741D02*
X258045Y159741D01*
X245345Y161055D02*
X245345Y142221D01*
X245345Y161055D02*
X249955Y161055D01*
X249955Y142221D01*
X245345Y142221D01*
X245345Y143681D02*
X249955Y143681D01*
X249955Y145141D02*
X245345Y145141D01*
X245345Y146601D02*
X249955Y146601D01*
X249955Y148061D02*
X245345Y148061D01*
X245345Y149521D02*
X249955Y149521D01*
X249955Y150981D02*
X245345Y150981D01*
X245345Y152441D02*
X249955Y152441D01*
X249955Y153901D02*
X245345Y153901D01*
X245345Y155361D02*
X249955Y155361D01*
X249955Y156821D02*
X245345Y156821D01*
X245345Y158281D02*
X249955Y158281D01*
X249955Y159741D02*
X245345Y159741D01*
X232645Y161055D02*
X232645Y142221D01*
X232645Y161055D02*
X237255Y161055D01*
X237255Y142221D01*
X232645Y142221D01*
X232645Y143681D02*
X237255Y143681D01*
X237255Y145141D02*
X232645Y145141D01*
X232645Y146601D02*
X237255Y146601D01*
X237255Y148061D02*
X232645Y148061D01*
X232645Y149521D02*
X237255Y149521D01*
X237255Y150981D02*
X232645Y150981D01*
X232645Y152441D02*
X237255Y152441D01*
X237255Y153901D02*
X232645Y153901D01*
X232645Y155361D02*
X237255Y155361D01*
X237255Y156821D02*
X232645Y156821D01*
X232645Y158281D02*
X237255Y158281D01*
X237255Y159741D02*
X232645Y159741D01*
X232645Y111779D02*
X232645Y92945D01*
X232645Y111779D02*
X237255Y111779D01*
X237255Y92945D01*
X232645Y92945D01*
X232645Y94405D02*
X237255Y94405D01*
X237255Y95865D02*
X232645Y95865D01*
X232645Y97325D02*
X237255Y97325D01*
X237255Y98785D02*
X232645Y98785D01*
X232645Y100245D02*
X237255Y100245D01*
X237255Y101705D02*
X232645Y101705D01*
X232645Y103165D02*
X237255Y103165D01*
X237255Y104625D02*
X232645Y104625D01*
X232645Y106085D02*
X237255Y106085D01*
X237255Y107545D02*
X232645Y107545D01*
X232645Y109005D02*
X237255Y109005D01*
X237255Y110465D02*
X232645Y110465D01*
X245345Y111779D02*
X245345Y92945D01*
X245345Y111779D02*
X249955Y111779D01*
X249955Y92945D01*
X245345Y92945D01*
X245345Y94405D02*
X249955Y94405D01*
X249955Y95865D02*
X245345Y95865D01*
X245345Y97325D02*
X249955Y97325D01*
X249955Y98785D02*
X245345Y98785D01*
X245345Y100245D02*
X249955Y100245D01*
X249955Y101705D02*
X245345Y101705D01*
X245345Y103165D02*
X249955Y103165D01*
X249955Y104625D02*
X245345Y104625D01*
X245345Y106085D02*
X249955Y106085D01*
X249955Y107545D02*
X245345Y107545D01*
X245345Y109005D02*
X249955Y109005D01*
X249955Y110465D02*
X245345Y110465D01*
X258045Y111779D02*
X258045Y92945D01*
X258045Y111779D02*
X262655Y111779D01*
X262655Y92945D01*
X258045Y92945D01*
X258045Y94405D02*
X262655Y94405D01*
X262655Y95865D02*
X258045Y95865D01*
X258045Y97325D02*
X262655Y97325D01*
X262655Y98785D02*
X258045Y98785D01*
X258045Y100245D02*
X262655Y100245D01*
X262655Y101705D02*
X258045Y101705D01*
X258045Y103165D02*
X262655Y103165D01*
X262655Y104625D02*
X258045Y104625D01*
X258045Y106085D02*
X262655Y106085D01*
X262655Y107545D02*
X258045Y107545D01*
X258045Y109005D02*
X262655Y109005D01*
X262655Y110465D02*
X258045Y110465D01*
X270745Y111779D02*
X270745Y92945D01*
X270745Y111779D02*
X275355Y111779D01*
X275355Y92945D01*
X270745Y92945D01*
X270745Y94405D02*
X275355Y94405D01*
X275355Y95865D02*
X270745Y95865D01*
X270745Y97325D02*
X275355Y97325D01*
X275355Y98785D02*
X270745Y98785D01*
X270745Y100245D02*
X275355Y100245D01*
X275355Y101705D02*
X270745Y101705D01*
X270745Y103165D02*
X275355Y103165D01*
X275355Y104625D02*
X270745Y104625D01*
X270745Y106085D02*
X275355Y106085D01*
X275355Y107545D02*
X270745Y107545D01*
X270745Y109005D02*
X275355Y109005D01*
X275355Y110465D02*
X270745Y110465D01*
D22*
X257927Y300073D02*
X257927Y318927D01*
X257927Y300073D02*
X248073Y300073D01*
X248073Y318927D01*
X257927Y318927D01*
X257927Y302128D02*
X248073Y302128D01*
X248073Y304183D02*
X257927Y304183D01*
X257927Y306238D02*
X248073Y306238D01*
X248073Y308293D02*
X257927Y308293D01*
X257927Y310348D02*
X248073Y310348D01*
X248073Y312403D02*
X257927Y312403D01*
X257927Y314458D02*
X248073Y314458D01*
X248073Y316513D02*
X257927Y316513D01*
X257927Y318568D02*
X248073Y318568D01*
X274927Y318927D02*
X274927Y300073D01*
X265073Y300073D01*
X265073Y318927D01*
X274927Y318927D01*
X274927Y302128D02*
X265073Y302128D01*
X265073Y304183D02*
X274927Y304183D01*
X274927Y306238D02*
X265073Y306238D01*
X265073Y308293D02*
X274927Y308293D01*
X274927Y310348D02*
X265073Y310348D01*
X265073Y312403D02*
X274927Y312403D01*
X274927Y314458D02*
X265073Y314458D01*
X265073Y316513D02*
X274927Y316513D01*
X274927Y318568D02*
X265073Y318568D01*
X291927Y318927D02*
X291927Y300073D01*
X282073Y300073D01*
X282073Y318927D01*
X291927Y318927D01*
X291927Y302128D02*
X282073Y302128D01*
X282073Y304183D02*
X291927Y304183D01*
X291927Y306238D02*
X282073Y306238D01*
X282073Y308293D02*
X291927Y308293D01*
X291927Y310348D02*
X282073Y310348D01*
X282073Y312403D02*
X291927Y312403D01*
X291927Y314458D02*
X282073Y314458D01*
X282073Y316513D02*
X291927Y316513D01*
X291927Y318568D02*
X282073Y318568D01*
X291927Y340073D02*
X291927Y358927D01*
X291927Y340073D02*
X282073Y340073D01*
X282073Y358927D01*
X291927Y358927D01*
X291927Y342128D02*
X282073Y342128D01*
X282073Y344183D02*
X291927Y344183D01*
X291927Y346238D02*
X282073Y346238D01*
X282073Y348293D02*
X291927Y348293D01*
X291927Y350348D02*
X282073Y350348D01*
X282073Y352403D02*
X291927Y352403D01*
X291927Y354458D02*
X282073Y354458D01*
X282073Y356513D02*
X291927Y356513D01*
X291927Y358568D02*
X282073Y358568D01*
X274927Y358927D02*
X274927Y340073D01*
X265073Y340073D01*
X265073Y358927D01*
X274927Y358927D01*
X274927Y342128D02*
X265073Y342128D01*
X265073Y344183D02*
X274927Y344183D01*
X274927Y346238D02*
X265073Y346238D01*
X265073Y348293D02*
X274927Y348293D01*
X274927Y350348D02*
X265073Y350348D01*
X265073Y352403D02*
X274927Y352403D01*
X274927Y354458D02*
X265073Y354458D01*
X265073Y356513D02*
X274927Y356513D01*
X274927Y358568D02*
X265073Y358568D01*
X257927Y358927D02*
X257927Y340073D01*
X248073Y340073D01*
X248073Y358927D01*
X257927Y358927D01*
X257927Y342128D02*
X248073Y342128D01*
X248073Y344183D02*
X257927Y344183D01*
X257927Y346238D02*
X248073Y346238D01*
X248073Y348293D02*
X257927Y348293D01*
X257927Y350348D02*
X248073Y350348D01*
X248073Y352403D02*
X257927Y352403D01*
X257927Y354458D02*
X248073Y354458D01*
X248073Y356513D02*
X257927Y356513D01*
X257927Y358568D02*
X248073Y358568D01*
X501373Y294927D02*
X501373Y276073D01*
X501373Y294927D02*
X511227Y294927D01*
X511227Y276073D01*
X501373Y276073D01*
X501373Y278128D02*
X511227Y278128D01*
X511227Y280183D02*
X501373Y280183D01*
X501373Y282238D02*
X511227Y282238D01*
X511227Y284293D02*
X501373Y284293D01*
X501373Y286348D02*
X511227Y286348D01*
X511227Y288403D02*
X501373Y288403D01*
X501373Y290458D02*
X511227Y290458D01*
X511227Y292513D02*
X501373Y292513D01*
X501373Y294568D02*
X511227Y294568D01*
X484373Y294927D02*
X484373Y276073D01*
X484373Y294927D02*
X494227Y294927D01*
X494227Y276073D01*
X484373Y276073D01*
X484373Y278128D02*
X494227Y278128D01*
X494227Y280183D02*
X484373Y280183D01*
X484373Y282238D02*
X494227Y282238D01*
X494227Y284293D02*
X484373Y284293D01*
X484373Y286348D02*
X494227Y286348D01*
X494227Y288403D02*
X484373Y288403D01*
X484373Y290458D02*
X494227Y290458D01*
X494227Y292513D02*
X484373Y292513D01*
X484373Y294568D02*
X494227Y294568D01*
X467373Y294927D02*
X467373Y276073D01*
X467373Y294927D02*
X477227Y294927D01*
X477227Y276073D01*
X467373Y276073D01*
X467373Y278128D02*
X477227Y278128D01*
X477227Y280183D02*
X467373Y280183D01*
X467373Y282238D02*
X477227Y282238D01*
X477227Y284293D02*
X467373Y284293D01*
X467373Y286348D02*
X477227Y286348D01*
X477227Y288403D02*
X467373Y288403D01*
X467373Y290458D02*
X477227Y290458D01*
X477227Y292513D02*
X467373Y292513D01*
X467373Y294568D02*
X477227Y294568D01*
X467373Y254927D02*
X467373Y236073D01*
X467373Y254927D02*
X477227Y254927D01*
X477227Y236073D01*
X467373Y236073D01*
X467373Y238128D02*
X477227Y238128D01*
X477227Y240183D02*
X467373Y240183D01*
X467373Y242238D02*
X477227Y242238D01*
X477227Y244293D02*
X467373Y244293D01*
X467373Y246348D02*
X477227Y246348D01*
X477227Y248403D02*
X467373Y248403D01*
X467373Y250458D02*
X477227Y250458D01*
X477227Y252513D02*
X467373Y252513D01*
X467373Y254568D02*
X477227Y254568D01*
X484373Y254927D02*
X484373Y236073D01*
X484373Y254927D02*
X494227Y254927D01*
X494227Y236073D01*
X484373Y236073D01*
X484373Y238128D02*
X494227Y238128D01*
X494227Y240183D02*
X484373Y240183D01*
X484373Y242238D02*
X494227Y242238D01*
X494227Y244293D02*
X484373Y244293D01*
X484373Y246348D02*
X494227Y246348D01*
X494227Y248403D02*
X484373Y248403D01*
X484373Y250458D02*
X494227Y250458D01*
X494227Y252513D02*
X484373Y252513D01*
X484373Y254568D02*
X494227Y254568D01*
X501373Y254927D02*
X501373Y236073D01*
X501373Y254927D02*
X511227Y254927D01*
X511227Y236073D01*
X501373Y236073D01*
X501373Y238128D02*
X511227Y238128D01*
X511227Y240183D02*
X501373Y240183D01*
X501373Y242238D02*
X511227Y242238D01*
X511227Y244293D02*
X501373Y244293D01*
X501373Y246348D02*
X511227Y246348D01*
X511227Y248403D02*
X501373Y248403D01*
X501373Y250458D02*
X511227Y250458D01*
X511227Y252513D02*
X501373Y252513D01*
X501373Y254568D02*
X511227Y254568D01*
X501373Y340073D02*
X501373Y358927D01*
X511227Y358927D01*
X511227Y340073D01*
X501373Y340073D01*
X501373Y342128D02*
X511227Y342128D01*
X511227Y344183D02*
X501373Y344183D01*
X501373Y346238D02*
X511227Y346238D01*
X511227Y348293D02*
X501373Y348293D01*
X501373Y350348D02*
X511227Y350348D01*
X511227Y352403D02*
X501373Y352403D01*
X501373Y354458D02*
X511227Y354458D01*
X511227Y356513D02*
X501373Y356513D01*
X501373Y358568D02*
X511227Y358568D01*
X484373Y358927D02*
X484373Y340073D01*
X484373Y358927D02*
X494227Y358927D01*
X494227Y340073D01*
X484373Y340073D01*
X484373Y342128D02*
X494227Y342128D01*
X494227Y344183D02*
X484373Y344183D01*
X484373Y346238D02*
X494227Y346238D01*
X494227Y348293D02*
X484373Y348293D01*
X484373Y350348D02*
X494227Y350348D01*
X494227Y352403D02*
X484373Y352403D01*
X484373Y354458D02*
X494227Y354458D01*
X494227Y356513D02*
X484373Y356513D01*
X484373Y358568D02*
X494227Y358568D01*
X467373Y358927D02*
X467373Y340073D01*
X467373Y358927D02*
X477227Y358927D01*
X477227Y340073D01*
X467373Y340073D01*
X467373Y342128D02*
X477227Y342128D01*
X477227Y344183D02*
X467373Y344183D01*
X467373Y346238D02*
X477227Y346238D01*
X477227Y348293D02*
X467373Y348293D01*
X467373Y350348D02*
X477227Y350348D01*
X477227Y352403D02*
X467373Y352403D01*
X467373Y354458D02*
X477227Y354458D01*
X477227Y356513D02*
X467373Y356513D01*
X467373Y358568D02*
X477227Y358568D01*
X467373Y318927D02*
X467373Y300073D01*
X467373Y318927D02*
X477227Y318927D01*
X477227Y300073D01*
X467373Y300073D01*
X467373Y302128D02*
X477227Y302128D01*
X477227Y304183D02*
X467373Y304183D01*
X467373Y306238D02*
X477227Y306238D01*
X477227Y308293D02*
X467373Y308293D01*
X467373Y310348D02*
X477227Y310348D01*
X477227Y312403D02*
X467373Y312403D01*
X467373Y314458D02*
X477227Y314458D01*
X477227Y316513D02*
X467373Y316513D01*
X467373Y318568D02*
X477227Y318568D01*
X484373Y318927D02*
X484373Y300073D01*
X484373Y318927D02*
X494227Y318927D01*
X494227Y300073D01*
X484373Y300073D01*
X484373Y302128D02*
X494227Y302128D01*
X494227Y304183D02*
X484373Y304183D01*
X484373Y306238D02*
X494227Y306238D01*
X494227Y308293D02*
X484373Y308293D01*
X484373Y310348D02*
X494227Y310348D01*
X494227Y312403D02*
X484373Y312403D01*
X484373Y314458D02*
X494227Y314458D01*
X494227Y316513D02*
X484373Y316513D01*
X484373Y318568D02*
X494227Y318568D01*
X501373Y318927D02*
X501373Y300073D01*
X501373Y318927D02*
X511227Y318927D01*
X511227Y300073D01*
X501373Y300073D01*
X501373Y302128D02*
X511227Y302128D01*
X511227Y304183D02*
X501373Y304183D01*
X501373Y306238D02*
X511227Y306238D01*
X511227Y308293D02*
X501373Y308293D01*
X501373Y310348D02*
X511227Y310348D01*
X511227Y312403D02*
X501373Y312403D01*
X501373Y314458D02*
X511227Y314458D01*
X511227Y316513D02*
X501373Y316513D01*
X501373Y318568D02*
X511227Y318568D01*
X501373Y404023D02*
X501373Y422877D01*
X511227Y422877D01*
X511227Y404023D01*
X501373Y404023D01*
X501373Y406078D02*
X511227Y406078D01*
X511227Y408133D02*
X501373Y408133D01*
X501373Y410188D02*
X511227Y410188D01*
X511227Y412243D02*
X501373Y412243D01*
X501373Y414298D02*
X511227Y414298D01*
X511227Y416353D02*
X501373Y416353D01*
X501373Y418408D02*
X511227Y418408D01*
X511227Y420463D02*
X501373Y420463D01*
X501373Y422518D02*
X511227Y422518D01*
X484373Y422877D02*
X484373Y404023D01*
X484373Y422877D02*
X494227Y422877D01*
X494227Y404023D01*
X484373Y404023D01*
X484373Y406078D02*
X494227Y406078D01*
X494227Y408133D02*
X484373Y408133D01*
X484373Y410188D02*
X494227Y410188D01*
X494227Y412243D02*
X484373Y412243D01*
X484373Y414298D02*
X494227Y414298D01*
X494227Y416353D02*
X484373Y416353D01*
X484373Y418408D02*
X494227Y418408D01*
X494227Y420463D02*
X484373Y420463D01*
X484373Y422518D02*
X494227Y422518D01*
X467373Y422877D02*
X467373Y404023D01*
X467373Y422877D02*
X477227Y422877D01*
X477227Y404023D01*
X467373Y404023D01*
X467373Y406078D02*
X477227Y406078D01*
X477227Y408133D02*
X467373Y408133D01*
X467373Y410188D02*
X477227Y410188D01*
X477227Y412243D02*
X467373Y412243D01*
X467373Y414298D02*
X477227Y414298D01*
X477227Y416353D02*
X467373Y416353D01*
X467373Y418408D02*
X477227Y418408D01*
X477227Y420463D02*
X467373Y420463D01*
X467373Y422518D02*
X477227Y422518D01*
X467373Y382877D02*
X467373Y364023D01*
X467373Y382877D02*
X477227Y382877D01*
X477227Y364023D01*
X467373Y364023D01*
X467373Y366078D02*
X477227Y366078D01*
X477227Y368133D02*
X467373Y368133D01*
X467373Y370188D02*
X477227Y370188D01*
X477227Y372243D02*
X467373Y372243D01*
X467373Y374298D02*
X477227Y374298D01*
X477227Y376353D02*
X467373Y376353D01*
X467373Y378408D02*
X477227Y378408D01*
X477227Y380463D02*
X467373Y380463D01*
X467373Y382518D02*
X477227Y382518D01*
X484373Y382877D02*
X484373Y364023D01*
X484373Y382877D02*
X494227Y382877D01*
X494227Y364023D01*
X484373Y364023D01*
X484373Y366078D02*
X494227Y366078D01*
X494227Y368133D02*
X484373Y368133D01*
X484373Y370188D02*
X494227Y370188D01*
X494227Y372243D02*
X484373Y372243D01*
X484373Y374298D02*
X494227Y374298D01*
X494227Y376353D02*
X484373Y376353D01*
X484373Y378408D02*
X494227Y378408D01*
X494227Y380463D02*
X484373Y380463D01*
X484373Y382518D02*
X494227Y382518D01*
X501373Y382877D02*
X501373Y364023D01*
X501373Y382877D02*
X511227Y382877D01*
X511227Y364023D01*
X501373Y364023D01*
X501373Y366078D02*
X511227Y366078D01*
X511227Y368133D02*
X501373Y368133D01*
X501373Y370188D02*
X511227Y370188D01*
X511227Y372243D02*
X501373Y372243D01*
X501373Y374298D02*
X511227Y374298D01*
X511227Y376353D02*
X501373Y376353D01*
X501373Y378408D02*
X511227Y378408D01*
X511227Y380463D02*
X501373Y380463D01*
X501373Y382518D02*
X511227Y382518D01*
X501373Y582073D02*
X501373Y600927D01*
X511227Y600927D01*
X511227Y582073D01*
X501373Y582073D01*
X501373Y584128D02*
X511227Y584128D01*
X511227Y586183D02*
X501373Y586183D01*
X501373Y588238D02*
X511227Y588238D01*
X511227Y590293D02*
X501373Y590293D01*
X501373Y592348D02*
X511227Y592348D01*
X511227Y594403D02*
X501373Y594403D01*
X501373Y596458D02*
X511227Y596458D01*
X511227Y598513D02*
X501373Y598513D01*
X501373Y600568D02*
X511227Y600568D01*
X484373Y600927D02*
X484373Y582073D01*
X484373Y600927D02*
X494227Y600927D01*
X494227Y582073D01*
X484373Y582073D01*
X484373Y584128D02*
X494227Y584128D01*
X494227Y586183D02*
X484373Y586183D01*
X484373Y588238D02*
X494227Y588238D01*
X494227Y590293D02*
X484373Y590293D01*
X484373Y592348D02*
X494227Y592348D01*
X494227Y594403D02*
X484373Y594403D01*
X484373Y596458D02*
X494227Y596458D01*
X494227Y598513D02*
X484373Y598513D01*
X484373Y600568D02*
X494227Y600568D01*
X467373Y600927D02*
X467373Y582073D01*
X467373Y600927D02*
X477227Y600927D01*
X477227Y582073D01*
X467373Y582073D01*
X467373Y584128D02*
X477227Y584128D01*
X477227Y586183D02*
X467373Y586183D01*
X467373Y588238D02*
X477227Y588238D01*
X477227Y590293D02*
X467373Y590293D01*
X467373Y592348D02*
X477227Y592348D01*
X477227Y594403D02*
X467373Y594403D01*
X467373Y596458D02*
X477227Y596458D01*
X477227Y598513D02*
X467373Y598513D01*
X467373Y600568D02*
X477227Y600568D01*
X467373Y560927D02*
X467373Y542073D01*
X467373Y560927D02*
X477227Y560927D01*
X477227Y542073D01*
X467373Y542073D01*
X467373Y544128D02*
X477227Y544128D01*
X477227Y546183D02*
X467373Y546183D01*
X467373Y548238D02*
X477227Y548238D01*
X477227Y550293D02*
X467373Y550293D01*
X467373Y552348D02*
X477227Y552348D01*
X477227Y554403D02*
X467373Y554403D01*
X467373Y556458D02*
X477227Y556458D01*
X477227Y558513D02*
X467373Y558513D01*
X467373Y560568D02*
X477227Y560568D01*
X484373Y560927D02*
X484373Y542073D01*
X484373Y560927D02*
X494227Y560927D01*
X494227Y542073D01*
X484373Y542073D01*
X484373Y544128D02*
X494227Y544128D01*
X494227Y546183D02*
X484373Y546183D01*
X484373Y548238D02*
X494227Y548238D01*
X494227Y550293D02*
X484373Y550293D01*
X484373Y552348D02*
X494227Y552348D01*
X494227Y554403D02*
X484373Y554403D01*
X484373Y556458D02*
X494227Y556458D01*
X494227Y558513D02*
X484373Y558513D01*
X484373Y560568D02*
X494227Y560568D01*
X501373Y560927D02*
X501373Y542073D01*
X501373Y560927D02*
X511227Y560927D01*
X511227Y542073D01*
X501373Y542073D01*
X501373Y544128D02*
X511227Y544128D01*
X511227Y546183D02*
X501373Y546183D01*
X501373Y548238D02*
X511227Y548238D01*
X511227Y550293D02*
X501373Y550293D01*
X501373Y552348D02*
X511227Y552348D01*
X511227Y554403D02*
X501373Y554403D01*
X501373Y556458D02*
X511227Y556458D01*
X511227Y558513D02*
X501373Y558513D01*
X501373Y560568D02*
X511227Y560568D01*
X404227Y318927D02*
X404227Y300073D01*
X394373Y300073D01*
X394373Y318927D01*
X404227Y318927D01*
X404227Y302128D02*
X394373Y302128D01*
X394373Y304183D02*
X404227Y304183D01*
X404227Y306238D02*
X394373Y306238D01*
X394373Y308293D02*
X404227Y308293D01*
X404227Y310348D02*
X394373Y310348D01*
X394373Y312403D02*
X404227Y312403D01*
X404227Y314458D02*
X394373Y314458D01*
X394373Y316513D02*
X404227Y316513D01*
X404227Y318568D02*
X394373Y318568D01*
X421227Y318927D02*
X421227Y300073D01*
X411373Y300073D01*
X411373Y318927D01*
X421227Y318927D01*
X421227Y302128D02*
X411373Y302128D01*
X411373Y304183D02*
X421227Y304183D01*
X421227Y306238D02*
X411373Y306238D01*
X411373Y308293D02*
X421227Y308293D01*
X421227Y310348D02*
X411373Y310348D01*
X411373Y312403D02*
X421227Y312403D01*
X421227Y314458D02*
X411373Y314458D01*
X411373Y316513D02*
X421227Y316513D01*
X421227Y318568D02*
X411373Y318568D01*
X438227Y318927D02*
X438227Y300073D01*
X428373Y300073D01*
X428373Y318927D01*
X438227Y318927D01*
X438227Y302128D02*
X428373Y302128D01*
X428373Y304183D02*
X438227Y304183D01*
X438227Y306238D02*
X428373Y306238D01*
X428373Y308293D02*
X438227Y308293D01*
X438227Y310348D02*
X428373Y310348D01*
X428373Y312403D02*
X438227Y312403D01*
X438227Y314458D02*
X428373Y314458D01*
X428373Y316513D02*
X438227Y316513D01*
X438227Y318568D02*
X428373Y318568D01*
X438227Y340073D02*
X438227Y358927D01*
X438227Y340073D02*
X428373Y340073D01*
X428373Y358927D01*
X438227Y358927D01*
X438227Y342128D02*
X428373Y342128D01*
X428373Y344183D02*
X438227Y344183D01*
X438227Y346238D02*
X428373Y346238D01*
X428373Y348293D02*
X438227Y348293D01*
X438227Y350348D02*
X428373Y350348D01*
X428373Y352403D02*
X438227Y352403D01*
X438227Y354458D02*
X428373Y354458D01*
X428373Y356513D02*
X438227Y356513D01*
X438227Y358568D02*
X428373Y358568D01*
X421227Y358927D02*
X421227Y340073D01*
X411373Y340073D01*
X411373Y358927D01*
X421227Y358927D01*
X421227Y342128D02*
X411373Y342128D01*
X411373Y344183D02*
X421227Y344183D01*
X421227Y346238D02*
X411373Y346238D01*
X411373Y348293D02*
X421227Y348293D01*
X421227Y350348D02*
X411373Y350348D01*
X411373Y352403D02*
X421227Y352403D01*
X421227Y354458D02*
X411373Y354458D01*
X411373Y356513D02*
X421227Y356513D01*
X421227Y358568D02*
X411373Y358568D01*
X404227Y358927D02*
X404227Y340073D01*
X394373Y340073D01*
X394373Y358927D01*
X404227Y358927D01*
X404227Y342128D02*
X394373Y342128D01*
X394373Y344183D02*
X404227Y344183D01*
X404227Y346238D02*
X394373Y346238D01*
X394373Y348293D02*
X404227Y348293D01*
X404227Y350348D02*
X394373Y350348D01*
X394373Y352403D02*
X404227Y352403D01*
X404227Y354458D02*
X394373Y354458D01*
X394373Y356513D02*
X404227Y356513D01*
X404227Y358568D02*
X394373Y358568D01*
X355223Y358927D02*
X355223Y340073D01*
X355223Y358927D02*
X365077Y358927D01*
X365077Y340073D01*
X355223Y340073D01*
X355223Y342128D02*
X365077Y342128D01*
X365077Y344183D02*
X355223Y344183D01*
X355223Y346238D02*
X365077Y346238D01*
X365077Y348293D02*
X355223Y348293D01*
X355223Y350348D02*
X365077Y350348D01*
X365077Y352403D02*
X355223Y352403D01*
X355223Y354458D02*
X365077Y354458D01*
X365077Y356513D02*
X355223Y356513D01*
X355223Y358568D02*
X365077Y358568D01*
X338223Y358927D02*
X338223Y340073D01*
X338223Y358927D02*
X348077Y358927D01*
X348077Y340073D01*
X338223Y340073D01*
X338223Y342128D02*
X348077Y342128D01*
X348077Y344183D02*
X338223Y344183D01*
X338223Y346238D02*
X348077Y346238D01*
X348077Y348293D02*
X338223Y348293D01*
X338223Y350348D02*
X348077Y350348D01*
X348077Y352403D02*
X338223Y352403D01*
X338223Y354458D02*
X348077Y354458D01*
X348077Y356513D02*
X338223Y356513D01*
X338223Y358568D02*
X348077Y358568D01*
X321223Y358927D02*
X321223Y340073D01*
X321223Y358927D02*
X331077Y358927D01*
X331077Y340073D01*
X321223Y340073D01*
X321223Y342128D02*
X331077Y342128D01*
X331077Y344183D02*
X321223Y344183D01*
X321223Y346238D02*
X331077Y346238D01*
X331077Y348293D02*
X321223Y348293D01*
X321223Y350348D02*
X331077Y350348D01*
X331077Y352403D02*
X321223Y352403D01*
X321223Y354458D02*
X331077Y354458D01*
X331077Y356513D02*
X321223Y356513D01*
X321223Y358568D02*
X331077Y358568D01*
X321223Y318927D02*
X321223Y300073D01*
X321223Y318927D02*
X331077Y318927D01*
X331077Y300073D01*
X321223Y300073D01*
X321223Y302128D02*
X331077Y302128D01*
X331077Y304183D02*
X321223Y304183D01*
X321223Y306238D02*
X331077Y306238D01*
X331077Y308293D02*
X321223Y308293D01*
X321223Y310348D02*
X331077Y310348D01*
X331077Y312403D02*
X321223Y312403D01*
X321223Y314458D02*
X331077Y314458D01*
X331077Y316513D02*
X321223Y316513D01*
X321223Y318568D02*
X331077Y318568D01*
X338223Y318927D02*
X338223Y300073D01*
X338223Y318927D02*
X348077Y318927D01*
X348077Y300073D01*
X338223Y300073D01*
X338223Y302128D02*
X348077Y302128D01*
X348077Y304183D02*
X338223Y304183D01*
X338223Y306238D02*
X348077Y306238D01*
X348077Y308293D02*
X338223Y308293D01*
X338223Y310348D02*
X348077Y310348D01*
X348077Y312403D02*
X338223Y312403D01*
X338223Y314458D02*
X348077Y314458D01*
X348077Y316513D02*
X338223Y316513D01*
X338223Y318568D02*
X348077Y318568D01*
X355223Y318927D02*
X355223Y300073D01*
X355223Y318927D02*
X365077Y318927D01*
X365077Y300073D01*
X355223Y300073D01*
X355223Y302128D02*
X365077Y302128D01*
X365077Y304183D02*
X355223Y304183D01*
X355223Y306238D02*
X365077Y306238D01*
X365077Y308293D02*
X355223Y308293D01*
X355223Y310348D02*
X365077Y310348D01*
X365077Y312403D02*
X355223Y312403D01*
X355223Y314458D02*
X365077Y314458D01*
X365077Y316513D02*
X355223Y316513D01*
X355223Y318568D02*
X365077Y318568D01*
X355223Y480143D02*
X355223Y498997D01*
X365077Y498997D01*
X365077Y480143D01*
X355223Y480143D01*
X355223Y482198D02*
X365077Y482198D01*
X365077Y484253D02*
X355223Y484253D01*
X355223Y486308D02*
X365077Y486308D01*
X365077Y488363D02*
X355223Y488363D01*
X355223Y490418D02*
X365077Y490418D01*
X365077Y492473D02*
X355223Y492473D01*
X355223Y494528D02*
X365077Y494528D01*
X365077Y496583D02*
X355223Y496583D01*
X355223Y498638D02*
X365077Y498638D01*
X338223Y498997D02*
X338223Y480143D01*
X338223Y498997D02*
X348077Y498997D01*
X348077Y480143D01*
X338223Y480143D01*
X338223Y482198D02*
X348077Y482198D01*
X348077Y484253D02*
X338223Y484253D01*
X338223Y486308D02*
X348077Y486308D01*
X348077Y488363D02*
X338223Y488363D01*
X338223Y490418D02*
X348077Y490418D01*
X348077Y492473D02*
X338223Y492473D01*
X338223Y494528D02*
X348077Y494528D01*
X348077Y496583D02*
X338223Y496583D01*
X338223Y498638D02*
X348077Y498638D01*
X321223Y498997D02*
X321223Y480143D01*
X321223Y498997D02*
X331077Y498997D01*
X331077Y480143D01*
X321223Y480143D01*
X321223Y482198D02*
X331077Y482198D01*
X331077Y484253D02*
X321223Y484253D01*
X321223Y486308D02*
X331077Y486308D01*
X331077Y488363D02*
X321223Y488363D01*
X321223Y490418D02*
X331077Y490418D01*
X331077Y492473D02*
X321223Y492473D01*
X321223Y494528D02*
X331077Y494528D01*
X331077Y496583D02*
X321223Y496583D01*
X321223Y498638D02*
X331077Y498638D01*
X321223Y458997D02*
X321223Y440143D01*
X321223Y458997D02*
X331077Y458997D01*
X331077Y440143D01*
X321223Y440143D01*
X321223Y442198D02*
X331077Y442198D01*
X331077Y444253D02*
X321223Y444253D01*
X321223Y446308D02*
X331077Y446308D01*
X331077Y448363D02*
X321223Y448363D01*
X321223Y450418D02*
X331077Y450418D01*
X331077Y452473D02*
X321223Y452473D01*
X321223Y454528D02*
X331077Y454528D01*
X331077Y456583D02*
X321223Y456583D01*
X321223Y458638D02*
X331077Y458638D01*
X338223Y458997D02*
X338223Y440143D01*
X338223Y458997D02*
X348077Y458997D01*
X348077Y440143D01*
X338223Y440143D01*
X338223Y442198D02*
X348077Y442198D01*
X348077Y444253D02*
X338223Y444253D01*
X338223Y446308D02*
X348077Y446308D01*
X348077Y448363D02*
X338223Y448363D01*
X338223Y450418D02*
X348077Y450418D01*
X348077Y452473D02*
X338223Y452473D01*
X338223Y454528D02*
X348077Y454528D01*
X348077Y456583D02*
X338223Y456583D01*
X338223Y458638D02*
X348077Y458638D01*
X355223Y458997D02*
X355223Y440143D01*
X355223Y458997D02*
X365077Y458997D01*
X365077Y440143D01*
X355223Y440143D01*
X355223Y442198D02*
X365077Y442198D01*
X365077Y444253D02*
X355223Y444253D01*
X355223Y446308D02*
X365077Y446308D01*
X365077Y448363D02*
X355223Y448363D01*
X355223Y450418D02*
X365077Y450418D01*
X365077Y452473D02*
X355223Y452473D01*
X355223Y454528D02*
X365077Y454528D01*
X365077Y456583D02*
X355223Y456583D01*
X355223Y458638D02*
X365077Y458638D01*
D20*
X377586Y578074D02*
X377586Y585026D01*
X377586Y578074D02*
X366634Y578074D01*
X366634Y585026D01*
X377586Y585026D01*
X377586Y579830D02*
X366634Y579830D01*
X366634Y581586D02*
X377586Y581586D01*
X377586Y583342D02*
X366634Y583342D01*
X377586Y596074D02*
X377586Y603026D01*
X377586Y596074D02*
X366634Y596074D01*
X366634Y603026D01*
X377586Y603026D01*
X377586Y597830D02*
X366634Y597830D01*
X366634Y599586D02*
X377586Y599586D01*
X377586Y601342D02*
X366634Y601342D01*
X222646Y116396D02*
X222646Y109444D01*
X211694Y109444D01*
X211694Y116396D01*
X222646Y116396D01*
X222646Y111200D02*
X211694Y111200D01*
X211694Y112956D02*
X222646Y112956D01*
X222646Y114712D02*
X211694Y114712D01*
X222646Y127444D02*
X222646Y134396D01*
X222646Y127444D02*
X211694Y127444D01*
X211694Y134396D01*
X222646Y134396D01*
X222646Y129200D02*
X211694Y129200D01*
X211694Y130956D02*
X222646Y130956D01*
X222646Y132712D02*
X211694Y132712D01*
X201056Y116396D02*
X201056Y109444D01*
X190104Y109444D01*
X190104Y116396D01*
X201056Y116396D01*
X201056Y111200D02*
X190104Y111200D01*
X190104Y112956D02*
X201056Y112956D01*
X201056Y114712D02*
X190104Y114712D01*
X201056Y127444D02*
X201056Y134396D01*
X201056Y127444D02*
X190104Y127444D01*
X190104Y134396D01*
X201056Y134396D01*
X201056Y129200D02*
X190104Y129200D01*
X190104Y130956D02*
X201056Y130956D01*
X201056Y132712D02*
X190104Y132712D01*
X268844Y597344D02*
X268844Y604296D01*
X279796Y604296D01*
X279796Y597344D01*
X268844Y597344D01*
X268844Y599100D02*
X279796Y599100D01*
X279796Y600856D02*
X268844Y600856D01*
X268844Y602612D02*
X279796Y602612D01*
X268844Y586296D02*
X268844Y579344D01*
X268844Y586296D02*
X279796Y586296D01*
X279796Y579344D01*
X268844Y579344D01*
X268844Y581100D02*
X279796Y581100D01*
X279796Y582856D02*
X268844Y582856D01*
X268844Y584612D02*
X279796Y584612D01*
X400446Y590774D02*
X400446Y597726D01*
X400446Y590774D02*
X389494Y590774D01*
X389494Y597726D01*
X400446Y597726D01*
X400446Y592530D02*
X389494Y592530D01*
X389494Y594286D02*
X400446Y594286D01*
X400446Y596042D02*
X389494Y596042D01*
X400446Y608774D02*
X400446Y615726D01*
X400446Y608774D02*
X389494Y608774D01*
X389494Y615726D01*
X400446Y615726D01*
X400446Y610530D02*
X389494Y610530D01*
X389494Y612286D02*
X400446Y612286D01*
X400446Y614042D02*
X389494Y614042D01*
D11*
X569653Y98093D02*
X581287Y98093D01*
X569653Y98093D02*
X569653Y112727D01*
X581287Y112727D01*
X581287Y98093D01*
X581287Y100357D02*
X569653Y100357D01*
X569653Y102621D02*
X581287Y102621D01*
X581287Y104885D02*
X569653Y104885D01*
X569653Y107149D02*
X581287Y107149D01*
X581287Y109413D02*
X569653Y109413D01*
X569653Y111677D02*
X581287Y111677D01*
X589653Y98093D02*
X601287Y98093D01*
X589653Y98093D02*
X589653Y112727D01*
X601287Y112727D01*
X601287Y98093D01*
X601287Y100357D02*
X589653Y100357D01*
X589653Y102621D02*
X601287Y102621D01*
X601287Y104885D02*
X589653Y104885D01*
X589653Y107149D02*
X601287Y107149D01*
X601287Y109413D02*
X589653Y109413D01*
X589653Y111677D02*
X601287Y111677D01*
D22*
X208923Y276073D02*
X208923Y294927D01*
X218777Y294927D01*
X218777Y276073D01*
X208923Y276073D01*
X208923Y278128D02*
X218777Y278128D01*
X218777Y280183D02*
X208923Y280183D01*
X208923Y282238D02*
X218777Y282238D01*
X218777Y284293D02*
X208923Y284293D01*
X208923Y286348D02*
X218777Y286348D01*
X218777Y288403D02*
X208923Y288403D01*
X208923Y290458D02*
X218777Y290458D01*
X218777Y292513D02*
X208923Y292513D01*
X208923Y294568D02*
X218777Y294568D01*
X191923Y294927D02*
X191923Y276073D01*
X191923Y294927D02*
X201777Y294927D01*
X201777Y276073D01*
X191923Y276073D01*
X191923Y278128D02*
X201777Y278128D01*
X201777Y280183D02*
X191923Y280183D01*
X191923Y282238D02*
X201777Y282238D01*
X201777Y284293D02*
X191923Y284293D01*
X191923Y286348D02*
X201777Y286348D01*
X201777Y288403D02*
X191923Y288403D01*
X191923Y290458D02*
X201777Y290458D01*
X201777Y292513D02*
X191923Y292513D01*
X191923Y294568D02*
X201777Y294568D01*
X174923Y294927D02*
X174923Y276073D01*
X174923Y294927D02*
X184777Y294927D01*
X184777Y276073D01*
X174923Y276073D01*
X174923Y278128D02*
X184777Y278128D01*
X184777Y280183D02*
X174923Y280183D01*
X174923Y282238D02*
X184777Y282238D01*
X184777Y284293D02*
X174923Y284293D01*
X174923Y286348D02*
X184777Y286348D01*
X184777Y288403D02*
X174923Y288403D01*
X174923Y290458D02*
X184777Y290458D01*
X184777Y292513D02*
X174923Y292513D01*
X174923Y294568D02*
X184777Y294568D01*
X174923Y254927D02*
X174923Y236073D01*
X174923Y254927D02*
X184777Y254927D01*
X184777Y236073D01*
X174923Y236073D01*
X174923Y238128D02*
X184777Y238128D01*
X184777Y240183D02*
X174923Y240183D01*
X174923Y242238D02*
X184777Y242238D01*
X184777Y244293D02*
X174923Y244293D01*
X174923Y246348D02*
X184777Y246348D01*
X184777Y248403D02*
X174923Y248403D01*
X174923Y250458D02*
X184777Y250458D01*
X184777Y252513D02*
X174923Y252513D01*
X174923Y254568D02*
X184777Y254568D01*
X191923Y254927D02*
X191923Y236073D01*
X191923Y254927D02*
X201777Y254927D01*
X201777Y236073D01*
X191923Y236073D01*
X191923Y238128D02*
X201777Y238128D01*
X201777Y240183D02*
X191923Y240183D01*
X191923Y242238D02*
X201777Y242238D01*
X201777Y244293D02*
X191923Y244293D01*
X191923Y246348D02*
X201777Y246348D01*
X201777Y248403D02*
X191923Y248403D01*
X191923Y250458D02*
X201777Y250458D01*
X201777Y252513D02*
X191923Y252513D01*
X191923Y254568D02*
X201777Y254568D01*
X208923Y254927D02*
X208923Y236073D01*
X208923Y254927D02*
X218777Y254927D01*
X218777Y236073D01*
X208923Y236073D01*
X208923Y238128D02*
X218777Y238128D01*
X218777Y240183D02*
X208923Y240183D01*
X208923Y242238D02*
X218777Y242238D01*
X218777Y244293D02*
X208923Y244293D01*
X208923Y246348D02*
X218777Y246348D01*
X218777Y248403D02*
X208923Y248403D01*
X208923Y250458D02*
X218777Y250458D01*
X218777Y252513D02*
X208923Y252513D01*
X208923Y254568D02*
X218777Y254568D01*
D11*
X225757Y431223D02*
X225757Y442857D01*
X225757Y431223D02*
X211123Y431223D01*
X211123Y442857D01*
X225757Y442857D01*
X225757Y433487D02*
X211123Y433487D01*
X211123Y435751D02*
X225757Y435751D01*
X225757Y438015D02*
X211123Y438015D01*
X211123Y440279D02*
X225757Y440279D01*
X225757Y442543D02*
X211123Y442543D01*
X225757Y451223D02*
X225757Y462857D01*
X225757Y451223D02*
X211123Y451223D01*
X211123Y462857D01*
X225757Y462857D01*
X225757Y453487D02*
X211123Y453487D01*
X211123Y455751D02*
X225757Y455751D01*
X225757Y458015D02*
X211123Y458015D01*
X211123Y460279D02*
X225757Y460279D01*
X225757Y462543D02*
X211123Y462543D01*
D22*
X208923Y358927D02*
X208923Y340073D01*
X208923Y358927D02*
X218777Y358927D01*
X218777Y340073D01*
X208923Y340073D01*
X208923Y342128D02*
X218777Y342128D01*
X218777Y344183D02*
X208923Y344183D01*
X208923Y346238D02*
X218777Y346238D01*
X218777Y348293D02*
X208923Y348293D01*
X208923Y350348D02*
X218777Y350348D01*
X218777Y352403D02*
X208923Y352403D01*
X208923Y354458D02*
X218777Y354458D01*
X218777Y356513D02*
X208923Y356513D01*
X208923Y358568D02*
X218777Y358568D01*
X191923Y358927D02*
X191923Y340073D01*
X191923Y358927D02*
X201777Y358927D01*
X201777Y340073D01*
X191923Y340073D01*
X191923Y342128D02*
X201777Y342128D01*
X201777Y344183D02*
X191923Y344183D01*
X191923Y346238D02*
X201777Y346238D01*
X201777Y348293D02*
X191923Y348293D01*
X191923Y350348D02*
X201777Y350348D01*
X201777Y352403D02*
X191923Y352403D01*
X191923Y354458D02*
X201777Y354458D01*
X201777Y356513D02*
X191923Y356513D01*
X191923Y358568D02*
X201777Y358568D01*
X174923Y358927D02*
X174923Y340073D01*
X174923Y358927D02*
X184777Y358927D01*
X184777Y340073D01*
X174923Y340073D01*
X174923Y342128D02*
X184777Y342128D01*
X184777Y344183D02*
X174923Y344183D01*
X174923Y346238D02*
X184777Y346238D01*
X184777Y348293D02*
X174923Y348293D01*
X174923Y350348D02*
X184777Y350348D01*
X184777Y352403D02*
X174923Y352403D01*
X174923Y354458D02*
X184777Y354458D01*
X184777Y356513D02*
X174923Y356513D01*
X174923Y358568D02*
X184777Y358568D01*
X174923Y318927D02*
X174923Y300073D01*
X174923Y318927D02*
X184777Y318927D01*
X184777Y300073D01*
X174923Y300073D01*
X174923Y302128D02*
X184777Y302128D01*
X184777Y304183D02*
X174923Y304183D01*
X174923Y306238D02*
X184777Y306238D01*
X184777Y308293D02*
X174923Y308293D01*
X174923Y310348D02*
X184777Y310348D01*
X184777Y312403D02*
X174923Y312403D01*
X174923Y314458D02*
X184777Y314458D01*
X184777Y316513D02*
X174923Y316513D01*
X174923Y318568D02*
X184777Y318568D01*
X191923Y318927D02*
X191923Y300073D01*
X191923Y318927D02*
X201777Y318927D01*
X201777Y300073D01*
X191923Y300073D01*
X191923Y302128D02*
X201777Y302128D01*
X201777Y304183D02*
X191923Y304183D01*
X191923Y306238D02*
X201777Y306238D01*
X201777Y308293D02*
X191923Y308293D01*
X191923Y310348D02*
X201777Y310348D01*
X201777Y312403D02*
X191923Y312403D01*
X191923Y314458D02*
X201777Y314458D01*
X201777Y316513D02*
X191923Y316513D01*
X191923Y318568D02*
X201777Y318568D01*
X208923Y318927D02*
X208923Y300073D01*
X208923Y318927D02*
X218777Y318927D01*
X218777Y300073D01*
X208923Y300073D01*
X208923Y302128D02*
X218777Y302128D01*
X218777Y304183D02*
X208923Y304183D01*
X208923Y306238D02*
X218777Y306238D01*
X218777Y308293D02*
X208923Y308293D01*
X208923Y310348D02*
X218777Y310348D01*
X218777Y312403D02*
X208923Y312403D01*
X208923Y314458D02*
X218777Y314458D01*
X218777Y316513D02*
X208923Y316513D01*
X208923Y318568D02*
X218777Y318568D01*
D11*
X226363Y587113D02*
X226363Y598747D01*
X240997Y598747D01*
X240997Y587113D01*
X226363Y587113D01*
X226363Y589377D02*
X240997Y589377D01*
X240997Y591641D02*
X226363Y591641D01*
X226363Y593905D02*
X240997Y593905D01*
X240997Y596169D02*
X226363Y596169D01*
X226363Y598433D02*
X240997Y598433D01*
X226363Y578747D02*
X226363Y567113D01*
X226363Y578747D02*
X240997Y578747D01*
X240997Y567113D01*
X226363Y567113D01*
X226363Y569377D02*
X240997Y569377D01*
X240997Y571641D02*
X226363Y571641D01*
X226363Y573905D02*
X240997Y573905D01*
X240997Y576169D02*
X226363Y576169D01*
X226363Y578433D02*
X240997Y578433D01*
D22*
X208923Y422877D02*
X208923Y404023D01*
X208923Y422877D02*
X218777Y422877D01*
X218777Y404023D01*
X208923Y404023D01*
X208923Y406078D02*
X218777Y406078D01*
X218777Y408133D02*
X208923Y408133D01*
X208923Y410188D02*
X218777Y410188D01*
X218777Y412243D02*
X208923Y412243D01*
X208923Y414298D02*
X218777Y414298D01*
X218777Y416353D02*
X208923Y416353D01*
X208923Y418408D02*
X218777Y418408D01*
X218777Y420463D02*
X208923Y420463D01*
X208923Y422518D02*
X218777Y422518D01*
X191923Y422877D02*
X191923Y404023D01*
X191923Y422877D02*
X201777Y422877D01*
X201777Y404023D01*
X191923Y404023D01*
X191923Y406078D02*
X201777Y406078D01*
X201777Y408133D02*
X191923Y408133D01*
X191923Y410188D02*
X201777Y410188D01*
X201777Y412243D02*
X191923Y412243D01*
X191923Y414298D02*
X201777Y414298D01*
X201777Y416353D02*
X191923Y416353D01*
X191923Y418408D02*
X201777Y418408D01*
X201777Y420463D02*
X191923Y420463D01*
X191923Y422518D02*
X201777Y422518D01*
X174923Y422877D02*
X174923Y404023D01*
X174923Y422877D02*
X184777Y422877D01*
X184777Y404023D01*
X174923Y404023D01*
X174923Y406078D02*
X184777Y406078D01*
X184777Y408133D02*
X174923Y408133D01*
X174923Y410188D02*
X184777Y410188D01*
X184777Y412243D02*
X174923Y412243D01*
X174923Y414298D02*
X184777Y414298D01*
X184777Y416353D02*
X174923Y416353D01*
X174923Y418408D02*
X184777Y418408D01*
X184777Y420463D02*
X174923Y420463D01*
X174923Y422518D02*
X184777Y422518D01*
X174923Y382877D02*
X174923Y364023D01*
X174923Y382877D02*
X184777Y382877D01*
X184777Y364023D01*
X174923Y364023D01*
X174923Y366078D02*
X184777Y366078D01*
X184777Y368133D02*
X174923Y368133D01*
X174923Y370188D02*
X184777Y370188D01*
X184777Y372243D02*
X174923Y372243D01*
X174923Y374298D02*
X184777Y374298D01*
X184777Y376353D02*
X174923Y376353D01*
X174923Y378408D02*
X184777Y378408D01*
X184777Y380463D02*
X174923Y380463D01*
X174923Y382518D02*
X184777Y382518D01*
X191923Y382877D02*
X191923Y364023D01*
X191923Y382877D02*
X201777Y382877D01*
X201777Y364023D01*
X191923Y364023D01*
X191923Y366078D02*
X201777Y366078D01*
X201777Y368133D02*
X191923Y368133D01*
X191923Y370188D02*
X201777Y370188D01*
X201777Y372243D02*
X191923Y372243D01*
X191923Y374298D02*
X201777Y374298D01*
X201777Y376353D02*
X191923Y376353D01*
X191923Y378408D02*
X201777Y378408D01*
X201777Y380463D02*
X191923Y380463D01*
X191923Y382518D02*
X201777Y382518D01*
X208923Y382877D02*
X208923Y364023D01*
X208923Y382877D02*
X218777Y382877D01*
X218777Y364023D01*
X208923Y364023D01*
X208923Y366078D02*
X218777Y366078D01*
X218777Y368133D02*
X208923Y368133D01*
X208923Y370188D02*
X218777Y370188D01*
X218777Y372243D02*
X208923Y372243D01*
X208923Y374298D02*
X218777Y374298D01*
X218777Y376353D02*
X208923Y376353D01*
X208923Y378408D02*
X218777Y378408D01*
X218777Y380463D02*
X208923Y380463D01*
X208923Y382518D02*
X218777Y382518D01*
D11*
X225093Y297757D02*
X225093Y286123D01*
X225093Y297757D02*
X239727Y297757D01*
X239727Y286123D01*
X225093Y286123D01*
X225093Y288387D02*
X239727Y288387D01*
X239727Y290651D02*
X225093Y290651D01*
X225093Y292915D02*
X239727Y292915D01*
X239727Y295179D02*
X225093Y295179D01*
X225093Y297443D02*
X239727Y297443D01*
X225093Y277757D02*
X225093Y266123D01*
X225093Y277757D02*
X239727Y277757D01*
X239727Y266123D01*
X225093Y266123D01*
X225093Y268387D02*
X239727Y268387D01*
X239727Y270651D02*
X225093Y270651D01*
X225093Y272915D02*
X239727Y272915D01*
X239727Y275179D02*
X225093Y275179D01*
X225093Y277443D02*
X239727Y277443D01*
D22*
X209073Y582073D02*
X209073Y600927D01*
X218927Y600927D01*
X218927Y582073D01*
X209073Y582073D01*
X209073Y584128D02*
X218927Y584128D01*
X218927Y586183D02*
X209073Y586183D01*
X209073Y588238D02*
X218927Y588238D01*
X218927Y590293D02*
X209073Y590293D01*
X209073Y592348D02*
X218927Y592348D01*
X218927Y594403D02*
X209073Y594403D01*
X209073Y596458D02*
X218927Y596458D01*
X218927Y598513D02*
X209073Y598513D01*
X209073Y600568D02*
X218927Y600568D01*
X192073Y600927D02*
X192073Y582073D01*
X192073Y600927D02*
X201927Y600927D01*
X201927Y582073D01*
X192073Y582073D01*
X192073Y584128D02*
X201927Y584128D01*
X201927Y586183D02*
X192073Y586183D01*
X192073Y588238D02*
X201927Y588238D01*
X201927Y590293D02*
X192073Y590293D01*
X192073Y592348D02*
X201927Y592348D01*
X201927Y594403D02*
X192073Y594403D01*
X192073Y596458D02*
X201927Y596458D01*
X201927Y598513D02*
X192073Y598513D01*
X192073Y600568D02*
X201927Y600568D01*
X175073Y600927D02*
X175073Y582073D01*
X175073Y600927D02*
X184927Y600927D01*
X184927Y582073D01*
X175073Y582073D01*
X175073Y584128D02*
X184927Y584128D01*
X184927Y586183D02*
X175073Y586183D01*
X175073Y588238D02*
X184927Y588238D01*
X184927Y590293D02*
X175073Y590293D01*
X175073Y592348D02*
X184927Y592348D01*
X184927Y594403D02*
X175073Y594403D01*
X175073Y596458D02*
X184927Y596458D01*
X184927Y598513D02*
X175073Y598513D01*
X175073Y600568D02*
X184927Y600568D01*
X175073Y560927D02*
X175073Y542073D01*
X175073Y560927D02*
X184927Y560927D01*
X184927Y542073D01*
X175073Y542073D01*
X175073Y544128D02*
X184927Y544128D01*
X184927Y546183D02*
X175073Y546183D01*
X175073Y548238D02*
X184927Y548238D01*
X184927Y550293D02*
X175073Y550293D01*
X175073Y552348D02*
X184927Y552348D01*
X184927Y554403D02*
X175073Y554403D01*
X175073Y556458D02*
X184927Y556458D01*
X184927Y558513D02*
X175073Y558513D01*
X175073Y560568D02*
X184927Y560568D01*
X192073Y560927D02*
X192073Y542073D01*
X192073Y560927D02*
X201927Y560927D01*
X201927Y542073D01*
X192073Y542073D01*
X192073Y544128D02*
X201927Y544128D01*
X201927Y546183D02*
X192073Y546183D01*
X192073Y548238D02*
X201927Y548238D01*
X201927Y550293D02*
X192073Y550293D01*
X192073Y552348D02*
X201927Y552348D01*
X201927Y554403D02*
X192073Y554403D01*
X192073Y556458D02*
X201927Y556458D01*
X201927Y558513D02*
X192073Y558513D01*
X192073Y560568D02*
X201927Y560568D01*
X209073Y560927D02*
X209073Y542073D01*
X209073Y560927D02*
X218927Y560927D01*
X218927Y542073D01*
X209073Y542073D01*
X209073Y544128D02*
X218927Y544128D01*
X218927Y546183D02*
X209073Y546183D01*
X209073Y548238D02*
X218927Y548238D01*
X218927Y550293D02*
X209073Y550293D01*
X209073Y552348D02*
X218927Y552348D01*
X218927Y554403D02*
X209073Y554403D01*
X209073Y556458D02*
X218927Y556458D01*
X218927Y558513D02*
X209073Y558513D01*
X209073Y560568D02*
X218927Y560568D01*
D11*
X245413Y297757D02*
X245413Y286123D01*
X245413Y297757D02*
X260047Y297757D01*
X260047Y286123D01*
X245413Y286123D01*
X245413Y288387D02*
X260047Y288387D01*
X260047Y290651D02*
X245413Y290651D01*
X245413Y292915D02*
X260047Y292915D01*
X260047Y295179D02*
X245413Y295179D01*
X245413Y297443D02*
X260047Y297443D01*
X245413Y277757D02*
X245413Y266123D01*
X245413Y277757D02*
X260047Y277757D01*
X260047Y266123D01*
X245413Y266123D01*
X245413Y268387D02*
X260047Y268387D01*
X260047Y270651D02*
X245413Y270651D01*
X245413Y272915D02*
X260047Y272915D01*
X260047Y275179D02*
X245413Y275179D01*
X245413Y277443D02*
X260047Y277443D01*
D23*
X585470Y146050D03*
D24*
X342900Y546100D03*
X355600Y146050D03*
D25*
X295910Y604520D03*
X215900Y88900D03*
X284480Y614680D03*
D24*
X196850Y63500D03*
X304800Y227330D03*
X520700Y203200D03*
X369570Y107950D03*
X467360Y179070D03*
X234950Y407670D03*
X387350Y415290D03*
X551180Y147320D03*
X533400Y382270D03*
X425450Y629920D03*
X452120Y515620D03*
D25*
X223520Y224790D03*
X223520Y641350D03*
X260350Y214630D03*
X261620Y633730D03*
M02*
